<svg width="739" height="337" viewBox="0 0 739 337" fill="none" xmlns="http://www.w3.org/2000/svg">
<g clip-path="url(#clip0)">
<path d="M672.639 135.368H650.152V213.207H672.639V135.368Z" fill="#F2F2F2"/>
<path d="M687.489 198.564L632.797 133.5L523.016 134.504L456.42 199.369L457.766 200.234H457.285V335.154H687.342V200.234L687.489 198.564Z" fill="#F2F2F2"/>
<path d="M632.854 133.639L564.529 213.742V335.154H687.341V198.504L632.854 133.639Z" fill="#E6E6E6"/>
<path d="M638.909 268.012H613.828V290.181H638.909V268.012Z" fill="#919491"/>
<path d="M638.909 229.64H613.828V251.457H638.909V229.64Z" fill="#919491"/>
<path d="M638.909 268.012H613.828V290.181H638.909V268.012Z" fill="white"/>
<path d="M638.909 229.64H613.828V251.457H638.909V229.64Z" fill="white"/>
<path d="M527.445 262.13H502.363V284.299H527.445V262.13Z" fill="white"/>
<path d="M527.445 223.757H502.363V245.574H527.445V223.757Z" fill="white"/>
<path d="M495.186 135.368H472.699V213.207H495.186V135.368Z" fill="#F2F2F2"/>
<path d="M510.037 198.564L455.346 133.5L345.565 134.504L278.969 199.369L280.315 200.234H279.834V335.154H509.891V200.234L510.037 198.564Z" fill="#F2F2F2"/>
<path d="M455.403 133.639L387.078 213.742V335.154H509.89V198.504L455.403 133.639Z" fill="#E6E6E6"/>
<path d="M461.458 268.012H436.377V290.181H461.458V268.012Z" fill="#919491"/>
<path d="M461.458 229.64H436.377V251.457H461.458V229.64Z" fill="#919491"/>
<path d="M461.458 268.012H436.377V290.181H461.458V268.012Z" fill="white"/>
<path d="M461.458 229.64H436.377V251.457H461.458V229.64Z" fill="white"/>
<path d="M349.993 262.13H324.912V284.299H349.993V262.13Z" fill="white"/>
<path d="M349.993 223.757H324.912V245.574H349.993V223.757Z" fill="white"/>
<path d="M313.487 68.1924H283.439V172.204H313.487V68.1924Z" fill="#F2F2F2"/>
<path d="M333.332 152.636L260.251 65.6953L113.556 67.0359L24.5684 153.712L26.366 154.868H25.724V335.154H333.135V154.868L333.332 152.636Z" fill="#F2F2F2"/>
<path d="M260.326 65.8809L169.027 172.919V335.155H333.134V152.557L260.326 65.8809Z" fill="#E6E6E6"/>
<path d="M268.417 245.436H234.902V275.059H268.417V245.436Z" fill="#919491"/>
<path d="M268.417 194.161H234.902V223.315H268.417V194.161Z" fill="#919491"/>
<path d="M268.417 245.436H234.902V275.059H268.417V245.436Z" fill="white"/>
<path d="M268.417 194.161H234.902V223.315H268.417V194.161Z" fill="white"/>
<path d="M119.474 237.575H85.959V267.198H119.474V237.575Z" fill="white"/>
<path d="M119.474 186.301H85.959V215.454H119.474V186.301Z" fill="white"/>
<path d="M718.717 334.488H0V335.979H718.717V334.488Z" fill="#919491"/>
<path d="M113.235 307.071C125.218 307.071 134.932 287.251 134.932 262.801C134.932 238.352 125.218 218.532 113.235 218.532C101.253 218.532 91.5391 238.352 91.5391 262.801C91.5391 287.251 101.253 307.071 113.235 307.071Z" fill="#919491"/>
<path d="M115.239 335.263C106.549 283.127 115.151 231.179 115.239 230.661L116.93 230.947C116.842 231.463 108.289 283.138 116.93 334.981L115.239 335.263Z" fill="#368F5C"/>
<path d="M132.336 253.281L112.717 263.775L113.526 265.287L133.145 254.793L132.336 253.281Z" fill="#368F5C"/>
<path d="M92.8189 258.539L92.0098 260.051L111.627 270.551L112.436 269.039L92.8189 258.539Z" fill="#368F5C"/>
<path d="M61.1053 281.113C84.5417 281.113 103.541 242.348 103.541 194.528C103.541 146.708 84.5417 107.942 61.1053 107.942C37.6689 107.942 18.6699 146.708 18.6699 194.528C18.6699 242.348 37.6689 281.113 61.1053 281.113Z" fill="#368F5C"/>
<path d="M65.8318 336.12C48.8586 234.283 65.6606 132.817 65.8322 131.804L67.5225 132.09C67.3513 133.1 50.5987 234.294 67.5229 335.839L65.8318 336.12Z" fill="#919491"/>
<path d="M98.8525 176.632L60.4785 197.157L61.2872 198.669L99.6613 178.144L98.8525 176.632Z" fill="#919491"/>
<path d="M20.7896 186.914L19.9805 188.426L58.3488 208.962L59.1579 207.45L20.7896 186.914Z" fill="#919491"/>
<path d="M161.611 260.899C193.681 260.899 219.68 207.852 219.68 142.414C219.68 76.9764 193.681 23.9287 161.611 23.9287C129.54 23.9287 103.541 76.9764 103.541 142.414C103.541 207.852 129.54 260.899 161.611 260.899Z" fill="#368F5C"/>
<path d="M168.391 336.119C145.173 196.815 168.156 58.0184 168.391 56.6328L170.081 56.9191C169.847 58.3022 146.913 196.825 170.082 335.838L168.391 336.119Z" fill="#919491"/>
<path d="M213.414 118.203L160.902 146.291L161.711 147.803L214.223 119.715L213.414 118.203Z" fill="#919491"/>
<path d="M106.292 132.273L105.482 133.785L157.987 161.887L158.796 160.375L106.292 132.273Z" fill="#919491"/>
<path d="M649.435 307.071C661.417 307.071 671.131 287.251 671.131 262.801C671.131 238.352 661.417 218.532 649.435 218.532C637.452 218.532 627.738 238.352 627.738 262.801C627.738 287.251 637.452 307.071 649.435 307.071Z" fill="#919491"/>
<path d="M647.431 335.263C656.121 283.127 647.519 231.179 647.431 230.661L645.741 230.947C645.828 231.463 654.381 283.138 645.74 334.981L647.431 335.263Z" fill="#368F5C"/>
<path d="M630.332 253.282L629.523 254.794L649.143 265.288L649.951 263.776L630.332 253.282Z" fill="#368F5C"/>
<path d="M669.849 258.539L650.232 269.039L651.042 270.551L670.659 260.051L669.849 258.539Z" fill="#368F5C"/>
<path d="M701.564 281.113C725.001 281.113 744 242.348 744 194.528C744 146.708 725.001 107.942 701.564 107.942C678.128 107.942 659.129 146.708 659.129 194.528C659.129 242.348 678.128 281.113 701.564 281.113Z" fill="#368F5C"/>
<path d="M696.838 336.12C713.811 234.283 697.009 132.817 696.837 131.804L695.147 132.09C695.318 133.1 712.071 234.294 695.146 335.839L696.838 336.12Z" fill="#919491"/>
<path d="M663.817 176.632L663.008 178.144L701.382 198.669L702.191 197.157L663.817 176.632Z" fill="#919491"/>
<path d="M741.88 186.914L703.512 207.45L704.321 208.962L742.689 188.426L741.88 186.914Z" fill="#919491"/>
<path d="M601.06 260.899C633.131 260.899 659.129 207.852 659.129 142.414C659.129 76.9764 633.131 23.9287 601.06 23.9287C568.989 23.9287 542.99 76.9764 542.99 142.414C542.99 207.852 568.989 260.899 601.06 260.899Z" fill="#368F5C"/>
<path d="M594.279 336.119C617.497 196.815 594.513 58.0184 594.279 56.6328L592.588 56.9191C592.823 58.3022 615.757 196.825 592.588 335.838L594.279 336.119Z" fill="#919491"/>
<path d="M549.256 118.203L548.447 119.715L600.959 147.802L601.768 146.291L549.256 118.203Z" fill="#919491"/>
<path d="M656.377 132.274L603.873 160.375L604.682 161.887L657.186 133.785L656.377 132.274Z" fill="#919491"/>
<path d="M439.606 75.6525L446.47 70.1628C441.138 69.5745 438.947 72.4826 438.05 74.7843C433.884 73.0545 429.35 75.3215 429.35 75.3215L443.083 80.307C442.39 78.4565 441.184 76.8419 439.606 75.6525V75.6525Z" fill="#919491"/>
<path d="M271.846 27.1886L278.71 21.6989C273.378 21.1107 271.187 24.0187 270.29 26.3204C266.125 24.5906 261.59 26.8576 261.59 26.8576L275.323 31.8432C274.63 29.9927 273.424 28.3781 271.846 27.1886V27.1886Z" fill="#919491"/>
<path d="M545.481 5.56654L552.345 0.0768796C547.013 -0.511395 544.822 2.39662 543.925 4.69835C539.759 2.96857 535.225 5.23552 535.225 5.23552L548.958 10.2211C548.265 8.37061 547.059 6.75598 545.481 5.56654V5.56654Z" fill="#919491"/>
<path d="M559.34 325.863C557.515 325.863 555.723 326.344 554.143 327.257C552.539 325.807 550.548 324.853 548.413 324.512C546.277 324.171 544.088 324.457 542.112 325.336C540.136 326.214 538.458 327.648 537.28 329.462C536.103 331.276 535.478 333.393 535.48 335.556H569.74C569.553 332.925 568.377 330.462 566.447 328.663C564.517 326.865 561.977 325.864 559.34 325.863V325.863Z" fill="#919491"/>
<path d="M211.146 325.863C209.322 325.863 207.529 326.344 205.95 327.257C204.346 325.807 202.355 324.853 200.219 324.512C198.084 324.171 195.895 324.457 193.919 325.336C191.943 326.214 190.264 327.648 189.087 329.462C187.91 331.276 187.284 333.393 187.287 335.556H221.547C221.36 332.925 220.183 330.462 218.253 328.663C216.324 326.865 213.784 325.864 211.146 325.863V325.863Z" fill="#919491"/>
<path d="M389.343 325.863C387.519 325.863 385.726 326.344 384.147 327.257C382.543 325.807 380.552 324.853 378.417 324.512C376.281 324.171 374.092 324.457 372.116 325.336C370.14 326.214 368.461 327.648 367.284 329.462C366.107 331.276 365.482 333.393 365.484 335.556H399.744C399.557 332.925 398.381 330.462 396.451 328.663C394.521 326.865 391.981 325.864 389.343 325.863V325.863Z" fill="#919491"/>
<path d="M351.742 301.39H252.9V304.578H268.316V334.868H271.504V304.578H331.544V334.868H334.733V304.578H351.742V301.39Z" fill="#919491"/>
<path d="M351.936 291.851H253.094V295.039H351.936V291.851Z" fill="#919491"/>
<path d="M351.936 283.88H253.094V287.068H351.936V283.88Z" fill="#919491"/>
<path d="M351.936 275.908H253.094V279.097H351.936V275.908Z" fill="#919491"/>
<path d="M506.078 301.39H407.236V304.578H422.652V334.868H425.84V304.578H485.88V334.868H489.069V304.578H506.078V301.39Z" fill="#919491"/>
<path d="M506.274 291.851H407.432V295.039H506.274V291.851Z" fill="#919491"/>
<path d="M506.274 283.88H407.432V287.068H506.274V283.88Z" fill="#919491"/>
<path d="M506.274 275.908H407.432V279.097H506.274V275.908Z" fill="#919491"/>
</g>
<defs>
<clipPath id="clip0">
<rect width="744" height="336.12" fill="white"/>
</clipPath>
</defs>
</svg>
