<svg width="1269" height="1193" viewBox="0 0 1269 1193" fill="none" xmlns="http://www.w3.org/2000/svg">
<g clip-path="url(#clip0)">
<g opacity="0.3">
<path opacity="0.3" d="M644.341 174.578C646.494 174.584 648.645 174.611 650.796 174.659" stroke="#368F5C" stroke-width="4.30215" stroke-miterlimit="10"/>
<path opacity="0.3" d="M663.507 175.086C796.423 182.13 922.569 256.28 990.244 382.036C1005.98 411.235 1017.98 442.302 1025.96 474.501" stroke="#368F5C" stroke-width="4.30215" stroke-miterlimit="10" stroke-dasharray="12.75 12.75"/>
<path opacity="0.3" d="M1027.46 480.692C1027.94 482.785 1028.41 484.884 1028.85 486.987" stroke="#368F5C" stroke-width="4.30215" stroke-miterlimit="10"/>
</g>
<path d="M142.364 373.862L35.3982 419.156C32.9692 420.185 31.8338 422.988 32.8624 425.417L117.615 625.568C118.644 627.997 121.447 629.132 123.876 628.104L230.841 582.81C233.271 581.781 234.406 578.978 233.377 576.549L148.624 376.398C147.596 373.969 144.793 372.834 142.364 373.862Z" fill="url(#paint0_linear)"/>
<path d="M141.493 377.564L38.6561 421.109C35.9514 422.255 34.6872 425.376 35.8325 428.08L117.773 621.589C118.918 624.294 122.039 625.558 124.744 624.413L227.58 580.867C230.285 579.722 231.549 576.601 230.404 573.896L148.464 380.387C147.318 377.683 144.197 376.418 141.493 377.564Z" fill="white"/>
<path d="M120.527 392.44C121.113 394.734 120.86 397.162 119.812 399.285C118.765 401.409 116.992 403.087 114.814 404.017L75.9138 420.494C73.7307 421.411 71.2914 421.517 69.0373 420.791C66.7832 420.066 64.863 418.558 63.624 416.54L43.0176 425.266C42.4554 425.504 41.9456 425.85 41.5172 426.285C41.0888 426.719 40.7504 427.234 40.5211 427.8C40.2919 428.366 40.1764 428.971 40.1813 429.581C40.1862 430.191 40.3113 430.795 40.5495 431.357L118.71 615.902C118.947 616.464 119.293 616.974 119.728 617.402C120.163 617.831 120.677 618.169 121.243 618.398C121.809 618.628 122.414 618.743 123.024 618.738C123.635 618.733 124.238 618.608 124.8 618.37L223.223 576.689C223.785 576.452 224.295 576.106 224.724 575.671C225.152 575.236 225.49 574.721 225.72 574.156C225.949 573.59 226.064 572.985 226.059 572.375C226.055 571.764 225.929 571.161 225.691 570.599L147.539 386.046C147.301 385.484 146.955 384.974 146.521 384.546C146.086 384.117 145.571 383.779 145.005 383.55C144.44 383.32 143.835 383.205 143.224 383.21C142.614 383.215 142.011 383.34 141.449 383.578L120.527 392.44Z" fill="#AFCFBD"/>
<path d="M149.169 477.369L139.811 475.588L133.647 507.914L119.88 505.29L118.094 514.648L136.532 518.149L141.235 518.992L149.169 477.369Z" fill="white"/>
<g opacity="0.2">
<path opacity="0.2" d="M82.9324 423.224L121.837 406.75C124.014 405.82 125.787 404.142 126.835 402.019C127.883 399.896 128.136 397.468 127.549 395.174L147.434 386.748L147.138 386.05C146.9 385.488 146.554 384.978 146.119 384.55C145.685 384.121 145.17 383.783 144.604 383.554C144.039 383.324 143.433 383.209 142.823 383.214C142.213 383.219 141.609 383.344 141.047 383.582L120.129 392.441C120.716 394.734 120.463 397.163 119.415 399.286C118.367 401.409 116.594 403.087 114.417 404.017L75.5242 420.494C74.4831 420.934 73.3736 421.19 72.2451 421.251C73.6408 422.585 75.3956 423.482 77.2942 423.833C79.1928 424.183 81.1524 423.971 82.9324 423.224Z" fill="white"/>
<path opacity="0.2" d="M47.572 434.082C47.3337 433.52 47.2086 432.917 47.2037 432.307C47.1988 431.696 47.3143 431.091 47.5435 430.526C47.7728 429.96 48.1112 429.445 48.5396 429.01C48.968 428.576 49.4778 428.23 50.04 427.992L67.8001 420.471C65.9054 419.667 64.309 418.292 63.2344 416.537L42.628 425.263C42.0658 425.5 41.5559 425.846 41.1275 426.281C40.6992 426.716 40.3607 427.231 40.1315 427.796C39.9023 428.362 39.7868 428.967 39.7917 429.577C39.7965 430.188 39.9217 430.791 40.1599 431.353L118.32 615.902C118.557 616.464 118.903 616.974 119.338 617.402C119.773 617.831 120.288 618.169 120.853 618.399C121.419 618.628 122.024 618.743 122.635 618.738C123.245 618.734 123.848 618.608 124.41 618.37L125.436 617.937L47.572 434.082Z" fill="white"/>
</g>
<path opacity="0.21" d="M296.018 755.631C214.836 604.776 241.984 424.608 350.632 304.374" stroke="#368F5C" stroke-width="4.30215" stroke-miterlimit="10" stroke-dasharray="12.91 12.91"/>
<path opacity="0.5" d="M972.845 785.015C936.903 839.922 887.766 884.939 829.929 915.947C716.722 976.869 587.004 976.789 478.511 927.02" stroke="#368F5C" stroke-width="4.30215" stroke-miterlimit="10" stroke-dasharray="12.91 12.91"/>
<g opacity="0.21">
<path opacity="0.21" d="M903.014 513.402C903.462 515.506 903.885 517.615 904.282 519.73" stroke="#7A7A7A" stroke-width="4.30215" stroke-miterlimit="10"/>
<path opacity="0.21" d="M906.356 532.415C921.082 639.215 869.519 748.687 769.022 802.769C639.828 872.294 478.722 823.92 409.196 694.725C339.671 565.531 388.045 404.425 517.24 334.9C568.471 307.233 627.4 297.245 684.887 306.483" stroke="#7A7A7A" stroke-width="4.30215" stroke-miterlimit="10" stroke-dasharray="12.85 12.85"/>
<path opacity="0.21" d="M691.223 307.544C693.339 307.936 695.448 308.352 697.55 308.792" stroke="#7A7A7A" stroke-width="4.30215" stroke-miterlimit="10"/>
</g>
<g opacity="0.5">
<path opacity="0.5" d="M552.72 448.448C554.465 447.151 556.23 445.891 558.015 444.67" stroke="#B7B7B7" stroke-width="4.30215" stroke-miterlimit="10"/>
<path opacity="0.5" d="M568.486 438.07C569.591 437.476 570.696 436.881 571.801 436.286C594.911 423.85 620.87 417.669 647.105 418.357C673.339 419.045 698.939 426.578 721.365 440.209C743.791 453.84 762.265 473.096 774.956 496.068C787.647 519.039 794.113 544.928 793.714 571.169" stroke="#B7B7B7" stroke-width="4.30215" stroke-miterlimit="10" stroke-dasharray="12.43 12.43"/>
<path opacity="0.5" d="M793.487 577.374C793.365 579.524 793.189 581.655 792.957 583.766" stroke="#B7B7B7" stroke-width="4.30215" stroke-miterlimit="10"/>
</g>
<path d="M1045.48 600.883L970.239 601.479L973.868 534.983C973.896 534.46 974.124 533.967 974.503 533.606C974.882 533.244 975.385 533.041 975.909 533.037L1038.72 532.543C1039.24 532.542 1039.74 532.735 1040.12 533.086C1040.51 533.436 1040.74 533.917 1040.78 534.434L1045.48 600.883Z" fill="#368F5C"/>
<path d="M1043.06 598.714L972.628 599.271L976.018 537.139C976.047 536.616 976.274 536.124 976.654 535.762C977.033 535.401 977.536 535.197 978.06 535.194L1036.62 534.733C1037.14 534.731 1037.64 534.925 1038.02 535.275C1038.4 535.626 1038.64 536.107 1038.68 536.624L1043.06 598.714Z" fill="#F2F2F2"/>
<path d="M1046.21 694.958L970.976 695.562L975.667 762.012C975.71 762.528 975.946 763.009 976.327 763.36C976.709 763.71 977.209 763.904 977.727 763.902L1040.54 763.379C1041.07 763.375 1041.57 763.171 1041.95 762.81C1042.33 762.448 1042.55 761.956 1042.58 761.433L1046.21 694.958Z" fill="#368F5C"/>
<path d="M1043.8 697.148L973.374 697.705L977.791 759.774C977.834 760.29 978.07 760.772 978.451 761.122C978.833 761.472 979.333 761.666 979.851 761.664L1038.41 761.198C1038.93 761.194 1039.43 760.991 1039.81 760.629C1040.19 760.268 1040.42 759.775 1040.45 759.252L1043.8 697.148Z" fill="#F2F2F2"/>
<path d="M954.966 596.934L955.79 700.304C955.797 701.153 956.491 701.836 957.34 701.83L1060.71 701.006C1061.56 700.999 1062.24 700.305 1062.24 699.455L1061.41 596.086C1061.4 595.236 1060.71 594.553 1059.86 594.56L956.492 595.384C955.642 595.39 954.959 596.085 954.966 596.934Z" fill="#CFF0DD"/>
<path d="M1058.32 596.163L958.156 596.961C957.306 596.968 956.623 597.662 956.63 598.512L957.428 698.679C957.435 699.529 958.129 700.212 958.979 700.205L1059.15 699.407C1060 699.4 1060.68 698.706 1060.67 697.856L1059.87 597.689C1059.87 596.839 1059.17 596.156 1058.32 596.163Z" fill="#F2F2F2"/>
<path d="M1041.7 625.737L1037.28 625.772C1036.73 625.776 1036.29 626.223 1036.3 626.77L1036.41 640.799C1036.41 641.345 1036.86 641.785 1037.41 641.781L1041.83 641.746C1042.38 641.741 1042.82 641.294 1042.81 640.747L1042.7 626.719C1042.7 626.172 1042.25 625.732 1041.7 625.737Z" fill="#F2F2F2"/>
<path d="M1053.56 601L963 601.722C962.151 601.729 961.467 602.423 961.474 603.272L962.196 693.835C962.203 694.684 962.897 695.367 963.747 695.36L1054.31 694.638C1055.16 694.632 1055.84 693.938 1055.83 693.088L1055.11 602.526C1055.11 601.676 1054.41 600.993 1053.56 601Z" fill="#AFCFBD"/>
<path d="M1013.2 644.418L1005.28 638.3L986.425 662.571L976.134 654.719L969.785 662.912L984.765 674.17L988.484 677.11L1013.2 644.418Z" fill="#CDE7D8"/>
<path d="M1033.16 634.679L1025.98 629.256L1007.26 654.078L996.686 646.108L991.263 653.292L1005.43 663.96L1009.06 666.634L1033.16 634.679Z" fill="white"/>
<path d="M240.679 433.677L196.296 488.951C195.552 489.878 195.7 491.232 196.626 491.976L196.936 492.225C197.863 492.968 199.217 492.821 199.96 491.894L244.344 436.619C245.088 435.693 244.94 434.339 244.014 433.595L243.703 433.346C242.777 432.602 241.423 432.75 240.679 433.677Z" fill="#CFF0DD"/>
<path d="M255.687 422.492C256.661 421.279 256.467 419.505 255.254 418.531C254.04 417.556 252.267 417.75 251.292 418.964C250.318 420.177 250.512 421.951 251.725 422.925C252.939 423.899 254.712 423.706 255.687 422.492Z" fill="#CFF0DD"/>
<path d="M447.484 558.748L419.501 567.211L445.256 653.176L409.14 664.343L417.878 693.313L470.035 676.775L483.311 672.916L447.484 558.748Z" fill="url(#paint1_linear)"/>
<path opacity="0.3" d="M888.167 43.6944C895.49 39.7536 898.232 30.6224 894.291 23.2994C890.35 15.9764 881.219 13.2347 873.896 17.1755C866.573 21.1164 863.831 30.2475 867.772 37.5705C871.713 44.8935 880.844 47.6352 888.167 43.6944Z" fill="#CFF0DD"/>
<path opacity="0.3" d="M913.691 419.08C921.014 415.139 923.756 406.008 919.815 398.685C915.874 391.362 906.743 388.621 899.42 392.561C892.097 396.502 889.355 405.633 893.296 412.956C897.237 420.279 906.368 423.021 913.691 419.08Z" fill="#CFF0DD"/>
<path opacity="0.5" d="M61.9846 557.92C69.3076 553.98 72.0494 544.848 68.1085 537.525C64.1677 530.202 55.0365 527.461 47.7136 531.402C40.3906 535.342 37.6488 544.474 41.5896 551.796C45.5305 559.119 54.6616 561.861 61.9846 557.92Z" fill="#CFF0DD"/>
<path opacity="0.3" d="M53.3288 510.059C60.6518 506.118 63.3936 496.987 59.4528 489.664C55.5119 482.341 46.3808 479.599 39.0578 483.54C31.7348 487.481 28.993 496.612 32.9339 503.935C36.8747 511.258 46.0059 513.999 53.3288 510.059Z" fill="#CFF0DD"/>
</g>
<defs>
<linearGradient id="paint0_linear" x1="97975.5" y1="134780" x2="129912" y2="10789.9" gradientUnits="userSpaceOnUse">
<stop stop-color="#808080" stop-opacity="0.25"/>
<stop offset="0.54" stop-color="#808080" stop-opacity="0.12"/>
<stop offset="1" stop-color="#808080" stop-opacity="0.1"/>
</linearGradient>
<linearGradient id="paint1_linear" x1="88077.7" y1="3090.33" x2="77480.6" y2="-4372.18" gradientUnits="userSpaceOnUse">
<stop stop-opacity="0.12"/>
<stop offset="0.55" stop-opacity="0.09"/>
<stop offset="1" stop-opacity="0.02"/>
</linearGradient>
<clipPath id="clip0">
<rect width="1001.32" height="815.892" fill="white" transform="translate(0 474.513) rotate(-28.2868)"/>
</clipPath>
</defs>
</svg>
