<svg width="1285" height="588" viewBox="0 0 1285 588" fill="none" xmlns="http://www.w3.org/2000/svg">
<g clip-path="url(#clip0)">
<rect width="1285" height="587.174" fill="url(#paint0_linear)"/>
<g clip-path="url(#clip1)">
<g opacity="0.3">
<path opacity="0.3" d="M669.724 -117.717C788.332 -111.431 900.9 -45.2625 961.291 66.9576C975.337 93.0138 986.045 120.736 993.16 149.469" stroke="#368F5C" stroke-width="3.83907" stroke-miterlimit="10" stroke-dasharray="11.37 11.37"/>
<path opacity="0.3" d="M994.498 154.993C994.929 156.861 995.344 158.734 995.744 160.611" stroke="#368F5C" stroke-width="3.83907" stroke-miterlimit="10"/>
</g>
<path opacity="0.21" d="M341.79 400.34C269.346 265.723 293.572 104.947 390.525 -2.34476" stroke="#368F5C" stroke-width="3.83907" stroke-miterlimit="10" stroke-dasharray="11.52 11.52"/>
<path opacity="0.5" d="M945.765 426.562C913.692 475.558 869.843 515.73 818.232 543.4C717.21 597.764 601.455 597.693 504.64 553.281" stroke="#368F5C" stroke-width="3.83907" stroke-miterlimit="10" stroke-dasharray="11.52 11.52"/>
<g opacity="0.21">
<path opacity="0.21" d="M883.449 184.183C883.849 186.06 884.226 187.942 884.58 189.83" stroke="#7A7A7A" stroke-width="3.83907" stroke-miterlimit="10"/>
<path opacity="0.21" d="M886.432 201.149C899.573 296.454 853.56 394.142 763.88 442.403C648.592 504.444 504.828 461.277 442.786 345.989C380.744 230.701 423.911 86.9362 539.2 24.8943C584.916 0.205934 637.502 -8.70747 688.801 -0.463511" stroke="#7A7A7A" stroke-width="3.83907" stroke-miterlimit="10" stroke-dasharray="11.47 11.47"/>
<path opacity="0.21" d="M694.455 0.484375C696.344 0.834122 698.226 1.20553 700.101 1.59861" stroke="#7A7A7A" stroke-width="3.83907" stroke-miterlimit="10"/>
</g>
<g opacity="0.5">
<path opacity="0.5" d="M570.86 126.22C572.417 125.063 573.992 123.939 575.586 122.849" stroke="#B7B7B7" stroke-width="3.83907" stroke-miterlimit="10"/>
<path opacity="0.5" d="M584.93 116.959C585.916 116.428 586.902 115.898 587.888 115.367C608.51 104.269 631.675 98.7538 655.086 99.3678C678.497 99.9819 701.341 106.704 721.353 118.868C741.365 131.032 757.851 148.215 769.176 168.714C780.5 189.212 786.271 212.315 785.915 235.731" stroke="#B7B7B7" stroke-width="3.83907" stroke-miterlimit="10" stroke-dasharray="11.09 11.09"/>
<path opacity="0.5" d="M785.713 241.27C785.604 243.188 785.447 245.09 785.24 246.974" stroke="#B7B7B7" stroke-width="3.83907" stroke-miterlimit="10"/>
</g>
<path d="M1010.58 262.246L943.44 262.778L946.678 203.439C946.704 202.972 946.907 202.533 947.245 202.21C947.584 201.888 948.032 201.706 948.5 201.703L1004.55 201.262C1005.02 201.261 1005.46 201.433 1005.8 201.746C1006.14 202.059 1006.35 202.488 1006.39 202.949L1010.58 262.246Z" fill="#368F5C"/>
<path d="M1008.42 260.312L945.571 260.809L948.596 205.365C948.622 204.898 948.825 204.459 949.163 204.136C949.502 203.814 949.951 203.632 950.418 203.629L1002.67 203.218C1003.14 203.216 1003.58 203.389 1003.92 203.702C1004.26 204.015 1004.47 204.444 1004.51 204.905L1008.42 260.312Z" fill="#F2F2F2"/>
<path d="M1011.24 346.196L944.097 346.735L948.283 406.032C948.321 406.493 948.532 406.922 948.872 407.235C949.213 407.548 949.659 407.721 950.121 407.719L1006.17 407.252C1006.64 407.249 1007.09 407.067 1007.43 406.744C1007.77 406.422 1007.97 405.982 1008 405.516L1011.24 346.196Z" fill="#368F5C"/>
<path d="M1009.08 348.151L946.236 348.648L950.178 404.035C950.216 404.496 950.427 404.926 950.767 405.238C951.108 405.551 951.554 405.724 952.016 405.722L1004.27 405.306C1004.74 405.303 1005.19 405.121 1005.52 404.799C1005.86 404.476 1006.07 404.037 1006.09 403.57L1009.08 348.151Z" fill="#F2F2F2"/>
<path d="M929.81 258.722L930.546 350.965C930.552 351.723 931.171 352.333 931.929 352.327L1024.17 351.592C1024.93 351.586 1025.54 350.966 1025.53 350.208L1024.8 257.965C1024.79 257.207 1024.17 256.597 1023.41 256.603L931.172 257.339C930.414 257.345 929.804 257.964 929.81 258.722Z" fill="#CFF0DD"/>
<path d="M1022.04 258.036L932.657 258.749C931.899 258.755 931.289 259.374 931.295 260.132L932.008 349.518C932.014 350.276 932.633 350.886 933.391 350.88L1022.78 350.167C1023.54 350.161 1024.14 349.542 1024.14 348.784L1023.43 259.398C1023.42 258.64 1022.8 258.03 1022.04 258.036Z" fill="#F2F2F2"/>
<path d="M1007.21 284.424L1003.26 284.456C1002.78 284.46 1002.38 284.859 1002.39 285.347L1002.49 297.865C1002.49 298.353 1002.89 298.746 1003.38 298.742L1007.33 298.71C1007.81 298.706 1008.21 298.308 1008.2 297.82L1008.1 285.301C1008.1 284.813 1007.7 284.42 1007.21 284.424Z" fill="#F2F2F2"/>
<path d="M1017.79 262.351L936.98 262.995C936.222 263.001 935.612 263.62 935.618 264.378L936.263 345.193C936.269 345.951 936.888 346.56 937.646 346.554L1018.46 345.91C1019.22 345.904 1019.83 345.285 1019.82 344.527L1019.18 263.712C1019.17 262.954 1018.55 262.345 1017.79 262.351Z" fill="#AFCFBD"/>
<path d="M981.781 301.095L974.708 295.636L957.884 317.294L948.7 310.287L943.034 317.598L956.402 327.645L959.721 330.268L981.781 301.095Z" fill="#CDE7D8"/>
<path d="M999.592 292.405L993.181 287.566L976.474 309.716L967.039 302.604L962.2 309.015L974.843 318.535L978.081 320.921L999.592 292.405Z" fill="white"/>
<path d="M292.409 113.04L252.802 162.365C252.139 163.191 252.271 164.399 253.097 165.063L253.374 165.285C254.201 165.949 255.409 165.817 256.073 164.991L295.679 115.666C296.343 114.839 296.211 113.631 295.384 112.967L295.107 112.745C294.281 112.081 293.072 112.213 292.409 113.04Z" fill="#CFF0DD"/>
<path d="M305.8 103.059C306.669 101.976 306.496 100.394 305.413 99.524C304.33 98.6545 302.748 98.8275 301.878 99.9104C301.009 100.993 301.182 102.576 302.264 103.445C303.347 104.315 304.93 104.142 305.8 103.059Z" fill="#CFF0DD"/>
<path d="M476.953 224.649L451.981 232.202L474.964 308.913L442.735 318.878L450.533 344.73L497.076 329.972L508.923 326.529L476.953 224.649Z" fill="url(#paint1_linear)"/>
<path opacity="0.3" d="M892.977 100.014C899.512 96.4971 901.959 88.3488 898.442 81.8141C894.925 75.2793 886.777 72.8327 880.242 76.3493C873.708 79.866 871.261 88.0143 874.778 94.549C878.294 101.084 886.443 103.53 892.977 100.014Z" fill="#CFF0DD"/>
<path opacity="0.5" d="M132.948 223.91C139.483 220.394 141.929 212.245 138.413 205.711C134.896 199.176 126.748 196.729 120.213 200.246C113.678 203.762 111.232 211.911 114.748 218.445C118.265 224.98 126.413 227.427 132.948 223.91Z" fill="#CFF0DD"/>
<path opacity="0.3" d="M125.224 181.199C131.759 177.683 134.206 169.534 130.689 163C127.172 156.465 119.024 154.018 112.489 157.535C105.955 161.052 103.508 169.2 107.025 175.735C110.541 182.269 118.69 184.716 125.224 181.199Z" fill="#CFF0DD"/>
</g>
<path d="M204.675 59.6655L109.224 100.084C107.056 101.002 106.043 103.503 106.961 105.671L182.591 284.278C183.509 286.445 186.01 287.458 188.178 286.541L283.63 246.122C285.797 245.204 286.81 242.703 285.892 240.535L210.262 61.9284C209.344 59.7608 206.843 58.7477 204.675 59.6655Z" fill="url(#paint2_linear)"/>
<path d="M203.898 62.9688L112.131 101.827C109.717 102.849 108.589 105.634 109.611 108.048L182.732 280.727C183.754 283.141 186.539 284.269 188.952 283.247L280.72 244.389C283.133 243.367 284.261 240.582 283.239 238.168L210.119 65.4884C209.097 63.0749 206.312 61.9468 203.898 62.9688Z" fill="white"/>
<path d="M185.189 76.2431C185.713 78.29 185.487 80.4567 184.552 82.3513C183.617 84.246 182.035 85.7436 180.092 86.5733L145.379 101.277C143.43 102.095 141.254 102.19 139.242 101.542C137.231 100.895 135.517 99.5497 134.412 97.749L116.023 105.536C115.522 105.748 115.067 106.056 114.684 106.444C114.302 106.832 114 107.292 113.796 107.797C113.591 108.301 113.488 108.841 113.492 109.386C113.497 109.931 113.608 110.469 113.821 110.97L183.568 275.651C183.78 276.153 184.089 276.608 184.477 276.99C184.864 277.373 185.324 277.675 185.829 277.879C186.333 278.084 186.874 278.187 187.418 278.182C187.963 278.178 188.501 278.066 189.003 277.854L276.832 240.66C277.333 240.448 277.788 240.139 278.171 239.751C278.553 239.363 278.855 238.904 279.06 238.399C279.264 237.894 279.367 237.354 279.363 236.809C279.358 236.265 279.247 235.726 279.034 235.225L209.294 70.537C209.082 70.0353 208.773 69.5804 208.385 69.1981C207.998 68.8158 207.538 68.5138 207.033 68.3092C206.529 68.1047 205.988 68.0016 205.444 68.006C204.899 68.0103 204.361 68.122 203.859 68.3346L185.189 76.2431Z" fill="#AFCFBD"/>
<path d="M210.748 152.031L202.398 150.441L196.897 179.289L184.611 176.947L183.018 185.297L199.471 188.422L203.667 189.173L210.748 152.031Z" fill="white"/>
<g opacity="0.2">
<path opacity="0.2" d="M151.64 103.715L186.357 89.0147C188.3 88.185 189.882 86.6874 190.817 84.7928C191.752 82.8981 191.978 80.7314 191.455 78.6846L209.199 71.1657L208.935 70.5429C208.723 70.0412 208.414 69.5862 208.026 69.204C207.638 68.8217 207.179 68.5196 206.674 68.3151C206.169 68.1105 205.629 68.0075 205.084 68.0119C204.54 68.0162 204.001 68.1279 203.5 68.3405L184.833 76.2455C185.357 78.2924 185.131 80.4591 184.196 82.3537C183.261 84.2484 181.679 85.746 179.736 86.5757L145.03 101.279C144.101 101.672 143.111 101.9 142.104 101.954C143.349 103.145 144.915 103.946 146.609 104.258C148.303 104.571 150.052 104.382 151.64 103.715Z" fill="white"/>
<path opacity="0.2" d="M120.087 113.405C119.874 112.904 119.762 112.365 119.758 111.821C119.754 111.276 119.857 110.736 120.061 110.231C120.266 109.726 120.568 109.267 120.95 108.879C121.332 108.491 121.787 108.182 122.289 107.97L138.137 101.259C136.447 100.542 135.022 99.3143 134.063 97.748L115.675 105.535C115.173 105.747 114.718 106.056 114.336 106.443C113.954 106.831 113.651 107.291 113.447 107.796C113.242 108.3 113.139 108.841 113.144 109.385C113.148 109.93 113.26 110.468 113.472 110.97L183.219 275.654C183.431 276.156 183.74 276.611 184.128 276.993C184.516 277.375 184.975 277.677 185.48 277.882C185.985 278.086 186.525 278.189 187.07 278.185C187.614 278.181 188.153 278.069 188.654 277.856L189.569 277.47L120.087 113.405Z" fill="white"/>
</g>
</g>
<defs>
<linearGradient id="paint0_linear" x1="642.5" y1="0" x2="642.5" y2="587.174" gradientUnits="userSpaceOnUse">
<stop offset="0.453125" stop-color="white"/>
<stop offset="1" stop-color="white" stop-opacity="0"/>
</linearGradient>
<linearGradient id="paint1_linear" x1="78674.8" y1="2483.74" x2="69218.3" y2="-4175.52" gradientUnits="userSpaceOnUse">
<stop stop-opacity="0.12"/>
<stop offset="0.55" stop-opacity="0.09"/>
<stop offset="1" stop-opacity="0.02"/>
</linearGradient>
<linearGradient id="paint2_linear" x1="87507.1" y1="119998" x2="116006" y2="9354.58" gradientUnits="userSpaceOnUse">
<stop stop-color="#808080" stop-opacity="0.25"/>
<stop offset="0.54" stop-color="#808080" stop-opacity="0.12"/>
<stop offset="1" stop-color="#808080" stop-opacity="0.1"/>
</linearGradient>
<clipPath id="clip0">
<rect width="1285" height="587.174" fill="white"/>
</clipPath>
<clipPath id="clip1">
<rect width="893.543" height="728.07" fill="white" transform="translate(77.6357 149.48) rotate(-28.2868)"/>
</clipPath>
</defs>
</svg>
