<svg width="466" height="343" viewBox="0 0 466 343" fill="none" xmlns="http://www.w3.org/2000/svg">
<g clip-path="url(#clip0)">
<path d="M433.097 308.675H376.227V341.99H433.097V308.675Z" fill="#368F5C"/>
<path d="M316.316 334.283C315.805 336.046 315.568 338.102 316.628 339.592C317.214 340.338 317.986 340.912 318.863 341.254C321.12 342.151 323.548 342.513 325.963 342.312C326.426 342.334 326.888 342.258 327.32 342.089C327.753 341.921 328.146 341.663 328.475 341.333C334.079 336.622 337.869 330.057 339.179 322.791C339.285 322.416 339.265 322.016 339.122 321.653C338.938 321.373 338.68 321.15 338.377 321.011C337.13 320.218 335.786 319.595 334.379 319.158C326.681 317.139 318.223 327.693 316.316 334.283Z" fill="#2F2E41"/>
<path d="M397.052 309.576C398.087 310.795 399.362 311.781 400.795 312.47C401.513 312.807 402.298 312.976 403.09 312.962C403.882 312.948 404.661 312.753 405.368 312.39C407.486 311.166 408.086 308.321 407.917 305.853C407.605 301.287 405.457 297.172 402.988 293.442C402.207 292.262 400.478 288.75 398.961 288.706C398.24 288.685 395.544 291.339 394.812 291.844C392.136 293.69 390.282 295.01 390.839 298.552C391.461 302.503 394.434 306.731 397.052 309.576Z" fill="#2F2E41"/>
<path d="M373.59 120.726C362.198 119.829 351.317 120.161 339.904 119.567C338.945 119.517 339.407 130.664 338.414 136.717C337.903 139.829 320.725 322.083 322.857 322.453C328.332 323.616 333.87 324.449 339.443 324.947C341.703 325.149 362.772 206.396 361.763 196.745C364.521 200.853 374.237 219.821 379.15 241.64C385.632 270.428 387.54 302.99 391.569 301.163C394.163 297.547 397.683 294.72 401.746 292.99C408.406 290.475 397.614 151.997 386.211 145.63C386.07 141.577 385.924 137.425 384.42 133.668C382.298 128.369 378.112 124.138 373.59 120.726Z" fill="#2F2E41"/>
<path d="M465.783 343.001H151.857V341.789H465.999L465.783 343.001Z" fill="#3F3D56"/>
<path d="M257.565 163.45H0V215.086H257.565V163.45Z" fill="#E6E6E6"/>
<path d="M257.565 81.8594H0V133.496H257.565V81.8594Z" fill="#E6E6E6"/>
<path d="M257.565 0H0V51.6363H257.565V0Z" fill="#E6E6E6"/>
<path d="M5.49023 46.0603H252.074V5.5752H5.49023V46.0603Z" fill="white"/>
<path d="M5.49023 128.1H252.074V87.6152H5.49023V128.1Z" fill="white"/>
<path d="M5.49023 209.511H252.074V169.026H5.49023V209.511Z" fill="white"/>
<path d="M27.0764 40.9072C35.4655 40.9072 42.2661 34.0017 42.2661 25.4834C42.2661 16.965 35.4655 10.0596 27.0764 10.0596C18.6874 10.0596 11.8867 16.965 11.8867 25.4834C11.8867 34.0017 18.6874 40.9072 27.0764 40.9072Z" fill="#368F5C"/>
<path d="M213.316 19.4473H63.4004V22.8003H213.316V19.4473Z" fill="#368F5C"/>
<path d="M213.316 28.165H63.4004V31.518H213.316V28.165Z" fill="#368F5C"/>
<path d="M27.0764 123.436C35.4655 123.436 42.2661 116.531 42.2661 108.013C42.2661 99.4943 35.4655 92.5889 27.0764 92.5889C18.6874 92.5889 11.8867 99.4943 11.8867 108.013C11.8867 116.531 18.6874 123.436 27.0764 123.436Z" fill="#CCCCCC"/>
<path d="M213.316 101.978H63.4004V105.331H213.316V101.978Z" fill="#CCCCCC"/>
<path d="M213.316 110.695H63.4004V114.048H213.316V110.695Z" fill="#CCCCCC"/>
<path d="M27.0764 205.027C35.4655 205.027 42.2662 198.122 42.2662 189.604C42.2662 181.085 35.4655 174.18 27.0764 174.18C18.6874 174.18 11.8867 181.085 11.8867 189.604C11.8867 198.122 18.6874 205.027 27.0764 205.027Z" fill="#CCCCCC"/>
<path d="M213.316 183.568H63.4004V186.921H213.316V183.568Z" fill="#CCCCCC"/>
<path d="M213.316 192.286H63.4004V195.639H213.316V192.286Z" fill="#CCCCCC"/>
<path d="M370.782 32.3245C364.87 22.18 353.172 21.7072 353.172 21.7072C353.172 21.7072 341.774 20.2271 334.461 35.6773C327.646 50.0781 318.24 63.9823 332.947 67.3535L335.604 58.9575L337.249 67.9785C339.343 68.1315 341.444 68.1679 343.542 68.0877C359.292 67.5714 374.292 68.2388 373.809 62.4997C373.167 54.8704 376.472 42.0855 370.782 32.3245Z" fill="#2F2E41"/>
<path d="M348.97 66.8886C348.998 68.0304 348.99 69.2347 348.431 70.226C347.323 72.1912 344.619 72.4854 342.992 74.0343C341.282 75.6631 341.088 78.3067 341.007 80.6865C340.921 83.1747 340.849 85.7443 341.743 88.0624C342.291 89.3394 342.983 90.5472 343.806 91.6614C344.8 93.1151 345.802 94.5622 346.813 96.0028C347.354 96.8141 347.956 97.5813 348.614 98.2971C350.425 100.171 352.91 101.208 355.391 101.948C356.994 102.426 358.725 102.798 360.315 102.279C361.368 101.862 362.338 101.256 363.179 100.491C364.408 99.5958 365.501 98.5209 366.42 97.3011C367.756 95.3339 368.125 92.8713 368.402 90.4986C369.221 83.4823 369.539 76.4152 369.355 69.3523C369.389 68.5827 369.253 67.8152 368.957 67.1055C368.134 65.4724 365.928 65.1237 364.765 63.7189C363.771 62.5179 363.731 60.8037 363.739 59.235L363.761 55.2414C363.796 54.9049 363.729 54.5656 363.57 54.2684C363.426 54.1083 363.252 53.9787 363.058 53.887C362.865 53.7953 362.655 53.7433 362.442 53.7339C359.997 53.322 357.519 53.1537 355.042 53.2313C353.034 53.2936 349.182 53.1229 347.445 54.2585C345.869 55.2893 347.843 58.1362 348.208 59.7354C348.698 62.0876 348.954 64.4842 348.97 66.8886V66.8886Z" fill="#FFB8B8"/>
<path d="M353.579 60.03C362.358 60.03 369.476 52.803 369.476 43.888C369.476 34.9731 362.358 27.7461 353.579 27.7461C344.799 27.7461 337.682 34.9731 337.682 43.888C337.682 52.803 344.799 60.03 353.579 60.03Z" fill="#FFB8B8"/>
<path d="M349.98 78.798C341.775 52.3966 337.452 89.4797 332.279 99.605C332.327 106.586 332.514 125.895 334.122 133.213C340.368 161.644 371.301 159.412 380.602 135.434C385.557 122.662 374.565 91.0073 374.938 76.2374C361.316 62.2221 360.476 106.686 349.98 78.798Z" fill="#368F5C"/>
<path d="M340.973 69.7422C323.195 78.5162 331.676 102.089 325.232 117.516C320.085 138.682 306.996 145.338 336.923 145.831C343.372 126.484 337.073 105.469 345.865 85.7697C346.471 78.0542 349.077 75.1527 348.846 68.6188C347.122 65.9071 342.656 68.9021 340.973 69.7422Z" fill="#575A88"/>
<path d="M368.169 31.3475L356.613 25.2002L340.653 27.715L337.352 42.5237L345.571 42.2022L347.867 36.7618V42.1123L351.659 41.9646L353.862 33.3031L355.237 42.5237L368.72 42.2439L368.169 31.3475Z" fill="#2F2E41"/>
<path d="M361.02 77.1723C370.17 76.088 361.249 64.9296 368.512 65.1192C390.26 61.4049 396.766 75.0825 388.495 94.1727C380.914 109.463 407.733 130.943 392.75 139.499C387.433 141.481 379.819 147.715 374.623 145.001C366.279 123.707 365.978 99.3788 361.02 77.1723Z" fill="#575A88"/>
<path d="M386.489 137.96C383.303 139.507 380.782 141.967 378.65 144.826C378.198 145.431 378.804 146.559 380.157 146.541C381.416 146.524 382.168 144.885 383.427 144.867C383.811 148.284 384.508 151.657 385.508 154.943C388.019 152.703 389.523 149.551 390.962 146.487L393.806 140.432C394.85 138.209 395.895 135.985 396.836 133.715C397.092 133.184 397.25 132.61 397.303 132.022C397.427 128.115 393.634 128.091 391.998 130.536C390.209 133.21 389.651 136.424 386.489 137.96Z" fill="#FFB8B8"/>
<path d="M387.143 70.7998C389.574 73.3656 392.023 75.9532 393.911 78.9543C395.799 81.9554 405.564 108.946 405.96 109.519C407.37 111.631 405.723 117.093 405.64 117.405C405.477 118.386 403.44 128.179 402.929 130.342C402.572 131.855 402.577 133.431 402.343 134.968C402.109 136.506 401.583 138.088 400.416 139.097C400.268 139.242 400.085 139.346 399.886 139.398C399.239 139.527 398.798 138.767 398.572 138.138C397.866 136.18 397.154 134.185 395.911 132.526C394.667 130.868 392.782 129.569 390.729 129.575C390.56 129.163 390.489 128.715 390.524 128.27C390.559 127.824 390.699 127.394 390.93 127.014C391.342 126.226 391.945 125.558 392.399 124.795C392.973 123.755 393.364 122.621 393.553 121.443C394.567 116.036 393.547 110.438 390.694 105.758C390.031 104.648 389.229 103.63 388.308 102.729C387.305 101.775 386.133 101.008 385.207 99.9774C383.78 98.2624 382.918 96.137 382.74 93.8991C382.569 91.6761 382.628 89.4412 382.914 87.2305C383.33 82.8434 383.865 78.4499 384.482 74.0873C384.53 73.519 384.675 72.9635 384.911 72.4458C385.395 71.5282 386.215 71.2426 387.143 70.7998Z" fill="#575A88"/>
<path d="M334.068 131.413C332.432 128.968 328.639 128.992 328.763 132.899C328.815 133.487 328.973 134.061 329.229 134.592C330.17 136.862 331.215 139.086 332.259 141.309L335.103 147.364C336.542 150.428 338.046 153.58 340.558 155.819C341.557 152.534 342.254 149.161 342.639 145.744C343.898 145.761 344.65 147.401 345.909 147.418C347.262 147.436 347.867 146.308 347.416 145.702C345.283 142.844 342.763 140.384 339.577 138.837C336.414 137.301 335.857 134.087 334.068 131.413Z" fill="#FFB8B8"/>
<path d="M341.155 73.3218C341.391 73.8395 341.536 74.3949 341.583 74.9632C342.2 79.3259 342.735 83.7194 343.151 88.1065C343.438 90.3171 343.496 92.5521 343.325 94.7751C343.148 97.013 342.285 99.1384 340.858 100.853C339.933 101.884 338.76 102.651 337.758 103.605C336.837 104.505 336.035 105.524 335.372 106.634C332.519 111.314 331.498 116.912 332.512 122.319C332.701 123.497 333.092 124.631 333.667 125.671C334.121 126.434 334.724 127.102 335.135 127.89C335.367 128.27 335.506 128.7 335.541 129.146C335.576 129.591 335.506 130.039 335.336 130.451C333.283 130.445 331.398 131.744 330.155 133.402C328.911 135.061 328.199 137.056 327.494 139.014C327.267 139.643 326.827 140.403 326.179 140.275C325.98 140.222 325.798 140.118 325.649 139.973C324.482 138.964 323.956 137.382 323.723 135.845C323.489 134.307 323.493 132.731 323.136 131.218C322.626 129.055 320.589 119.262 320.426 118.281C320.342 117.969 318.696 112.507 320.105 110.395C320.501 109.822 330.266 82.8314 332.154 79.8303C334.042 76.8292 336.491 74.2416 338.923 71.6758C339.851 72.1185 340.67 72.4042 341.155 73.3218Z" fill="#575A88"/>
</g>
<defs>
<clipPath id="clip0">
<rect width="466" height="343" fill="white"/>
</clipPath>
</defs>
</svg>
