<svg width="391" height="251" viewBox="0 0 391 251" fill="none" xmlns="http://www.w3.org/2000/svg">
<g clip-path="url(#clip0)">
<path d="M196.668 250.88C302.643 250.88 388.554 244.19 388.554 235.937C388.554 227.684 302.643 220.993 196.668 220.993C90.6917 220.993 4.78125 227.684 4.78125 235.937C4.78125 244.19 90.6917 250.88 196.668 250.88Z" fill="#F2F2F2"/>
<path d="M189.314 72.3457C158.05 72.3457 135.604 95.9406 135.604 150.995C135.604 213.39 158.05 229.907 189.314 229.907C220.577 229.907 244.361 211.817 244.361 150.995C244.361 85.9783 220.577 72.3457 189.314 72.3457ZM189.519 209.196C167.866 209.196 156.553 194.252 156.553 151.036C156.553 112.903 168.329 92.7946 189.982 92.7946C211.636 92.7946 223.412 106.003 223.412 151.036C223.412 193.162 211.173 209.196 189.519 209.196Z" fill="#2F2E41"/>
<path d="M116.882 186.387H103.955V141.611C103.955 139.232 103.152 136.951 101.723 135.27C100.293 133.588 98.3542 132.643 96.3325 132.643H93.3036C92.3025 132.643 91.3113 132.875 90.3864 133.326C89.4615 133.777 88.6212 134.437 87.9133 135.27C87.2055 136.102 86.644 137.091 86.2609 138.179C85.8778 139.267 85.6806 140.433 85.6806 141.611V186.387H49.2203C48.4703 186.387 47.7329 186.159 47.0799 185.725C46.4268 185.291 45.8802 184.666 45.493 183.91C45.1059 183.154 44.8913 182.294 44.8702 181.412C44.8491 180.53 45.0222 179.656 45.3725 178.876L83.9617 92.9599C84.4428 91.8887 84.7344 90.714 84.8189 89.5066C84.9034 88.2992 84.7791 87.0842 84.4534 85.9349C84.1277 84.7856 83.6074 83.7258 82.9239 82.8196C82.2404 81.9134 81.4079 81.1795 80.4767 80.6621L78.1987 79.3967C76.4298 78.4141 74.4076 78.2691 72.5503 78.9915C70.6931 79.7139 69.143 81.2486 68.2208 83.2779L21.1563 186.847C20.3548 188.61 19.9355 190.579 19.9355 192.579V192.579C19.9355 194.176 20.2029 195.757 20.7224 197.232C21.2418 198.708 22.0032 200.048 22.9631 201.177C23.923 202.306 25.0625 203.202 26.3166 203.813C27.5707 204.424 28.9148 204.739 30.2723 204.739H85.6806V233.052C85.6806 234.464 85.9169 235.862 86.3761 237.166C86.8353 238.47 87.5084 239.655 88.3569 240.653C89.2054 241.651 90.2127 242.443 91.3213 242.983C92.4299 243.523 93.6181 243.801 94.818 243.801H94.818C96.018 243.801 97.2062 243.523 98.3148 242.983C99.4234 242.443 100.431 241.651 101.279 240.653C102.128 239.655 102.801 238.47 103.26 237.166C103.719 235.862 103.955 234.464 103.955 233.052V204.739H116.882C118.95 204.739 120.934 203.772 122.397 202.051C123.86 200.33 124.682 197.996 124.682 195.563V195.563C124.682 193.129 123.86 190.795 122.397 189.075C120.934 187.354 118.95 186.387 116.882 186.387V186.387Z" fill="#368F5C"/>
<path d="M356.239 186.387H343.313V141.611C343.313 139.232 342.51 136.951 341.08 135.27C339.651 133.588 337.712 132.643 335.69 132.643H332.661C331.66 132.643 330.669 132.875 329.744 133.326C328.819 133.777 327.979 134.437 327.271 135.27C326.563 136.102 326.001 137.091 325.618 138.179C325.235 139.267 325.038 140.433 325.038 141.611V186.387H288.578C287.828 186.387 287.09 186.159 286.437 185.725C285.784 185.291 285.238 184.666 284.85 183.91C284.463 183.154 284.249 182.294 284.228 181.412C284.207 180.53 284.38 179.656 284.73 178.876L323.319 92.9599C323.8 91.8887 324.092 90.714 324.176 89.5066C324.261 88.2992 324.136 87.0842 323.811 85.9349C323.485 84.7856 322.965 83.7258 322.281 82.8196C321.598 81.9134 320.765 81.1795 319.834 80.6621L317.556 79.3967C315.787 78.4141 313.765 78.2691 311.908 78.9915C310.05 79.7139 308.5 81.2486 307.578 83.2779L260.514 186.847C259.712 188.61 259.293 190.579 259.293 192.579V192.579C259.293 195.804 260.382 198.897 262.321 201.177C264.259 203.458 266.888 204.739 269.63 204.739H325.038V233.052C325.038 235.903 326.001 238.637 327.714 240.653C329.428 242.669 331.752 243.801 334.175 243.801V243.801C336.599 243.801 338.923 242.669 340.637 240.653C342.35 238.637 343.313 235.903 343.313 233.052V204.739H356.239C358.308 204.739 360.292 203.772 361.755 202.051C363.217 200.33 364.039 197.996 364.039 195.563V195.563C364.039 193.129 363.217 190.795 361.755 189.075C360.292 187.354 358.308 186.387 356.239 186.387Z" fill="#368F5C"/>
<path d="M120.448 181.144H107.522V136.367C107.522 135.19 107.325 134.024 106.942 132.936C106.559 131.848 105.997 130.859 105.289 130.027C104.581 129.194 103.741 128.533 102.816 128.083C101.891 127.632 100.9 127.4 99.8989 127.4H96.87C94.8483 127.4 92.9093 128.345 91.4797 130.027C90.0501 131.708 89.247 133.989 89.247 136.367V181.144H52.7867C52.0367 181.144 51.2993 180.916 50.6463 180.482C49.9932 180.048 49.4466 179.423 49.0594 178.667C48.6723 177.911 48.4577 177.051 48.4366 176.169C48.4155 175.287 48.5886 174.413 48.939 173.633L87.5281 87.7167C88.0092 86.6456 88.3008 85.4708 88.3853 84.2634C88.4698 83.056 88.3455 81.841 88.0198 80.6917C87.6941 79.5424 87.1738 78.4827 86.4903 77.5764C85.8068 76.6702 84.9743 75.9363 84.0431 75.419L81.7651 74.1536C79.9962 73.171 77.974 73.0259 76.1167 73.7483C74.2595 74.4707 72.7094 76.0054 71.7872 78.0347L24.7227 181.604C23.9212 183.367 23.502 185.336 23.502 187.336V187.336C23.502 190.561 24.591 193.654 26.5295 195.934C28.468 198.214 31.0972 199.495 33.8387 199.495H89.247V227.809C89.247 229.221 89.4833 230.619 89.9425 231.923C90.4017 233.227 91.0748 234.412 91.9233 235.41C92.7718 236.408 93.7791 237.2 94.8877 237.74C95.9963 238.28 97.1845 238.558 98.3844 238.558H98.3844C100.808 238.558 103.132 237.426 104.846 235.41C106.559 233.394 107.522 230.66 107.522 227.809V199.495H120.448C121.472 199.495 122.487 199.258 123.433 198.797C124.379 198.336 125.239 197.66 125.964 196.808C126.688 195.956 127.263 194.944 127.655 193.831C128.047 192.718 128.248 191.525 128.248 190.32V190.32C128.248 189.115 128.047 187.922 127.655 186.808C127.263 185.695 126.688 184.684 125.964 183.831C125.239 182.979 124.379 182.304 123.433 181.842C122.487 181.381 121.472 181.144 120.448 181.144V181.144Z" stroke="#3F3D56" stroke-miterlimit="10"/>
<path d="M362.925 181.144H349.998V136.367C349.998 133.989 349.195 131.708 347.766 130.027C346.336 128.345 344.397 127.4 342.375 127.4H339.347C338.345 127.4 337.354 127.632 336.429 128.083C335.504 128.533 334.664 129.194 333.956 130.027C333.248 130.859 332.687 131.848 332.304 132.936C331.921 134.024 331.724 135.19 331.724 136.367V181.144H295.263C294.513 181.144 293.776 180.916 293.123 180.482C292.47 180.048 291.923 179.423 291.536 178.667C291.149 177.911 290.934 177.051 290.913 176.169C290.892 175.287 291.065 174.413 291.416 173.633L330.005 87.7167C330.486 86.6456 330.777 85.4708 330.862 84.2634C330.946 83.056 330.822 81.841 330.496 80.6917C330.171 79.5424 329.65 78.4827 328.967 77.5764C328.283 76.6702 327.451 75.9363 326.52 75.419L324.242 74.1536C322.473 73.171 320.451 73.0259 318.593 73.7483C316.736 74.4707 315.186 76.0054 314.264 78.0347L267.199 181.604C266.398 183.367 265.979 185.336 265.979 187.336C265.979 190.561 267.068 193.654 269.006 195.934C270.945 198.214 273.574 199.495 276.315 199.495H331.724V227.809C331.724 230.66 332.686 233.394 334.4 235.41C336.113 237.426 338.438 238.558 340.861 238.558V238.558C343.284 238.558 345.608 237.426 347.322 235.41C349.036 233.394 349.998 230.66 349.998 227.809V199.495H362.925C363.949 199.495 364.963 199.258 365.91 198.797C366.856 198.336 367.716 197.66 368.44 196.808C369.164 195.956 369.739 194.944 370.131 193.831C370.523 192.718 370.725 191.525 370.725 190.32V190.32C370.725 187.886 369.903 185.552 368.44 183.831C366.977 182.111 364.993 181.144 362.925 181.144V181.144Z" stroke="#3F3D56" stroke-miterlimit="10"/>
<path d="M196.445 67.627C165.181 67.627 142.734 91.2218 142.734 146.276C142.734 208.672 165.181 225.188 196.445 225.188C227.708 225.188 251.492 207.099 251.492 146.276C251.492 81.2595 227.708 67.627 196.445 67.627ZM196.65 204.477C174.996 204.477 163.684 189.533 163.684 146.317C163.684 108.185 175.46 88.0758 197.113 88.0758C218.767 88.0758 230.543 101.285 230.543 146.317C230.543 188.444 218.304 204.477 196.65 204.477V204.477Z" stroke="#3F3D56" stroke-miterlimit="10"/>
<path d="M171.384 14.2101C173.976 14.2101 176.077 11.7385 176.077 8.68953C176.077 5.64059 173.976 3.16895 171.384 3.16895C168.793 3.16895 166.691 5.64059 166.691 8.68953C166.691 11.7385 168.793 14.2101 171.384 14.2101Z" fill="#2F2E41"/>
<path d="M182.831 41.0051C190.101 41.0051 195.995 32.0227 195.995 20.9425C195.995 9.86221 190.101 0.879883 182.831 0.879883C175.561 0.879883 169.668 9.86221 169.668 20.9425C169.668 32.0227 175.561 41.0051 182.831 41.0051Z" fill="#2F2E41"/>
<path opacity="0.1" d="M182.831 34.9461C176.237 34.9461 170.776 27.5558 169.817 17.9131C169.718 18.9187 169.668 19.9303 169.668 20.9427C169.668 32.0229 175.561 41.0053 182.831 41.0053C190.101 41.0053 195.995 32.0229 195.995 20.9427C195.995 19.9303 195.945 18.9187 195.845 17.9131C194.887 27.5558 189.425 34.9461 182.831 34.9461Z" fill="black"/>
<path d="M209.618 79.697C209.335 81.0635 208.116 82.1579 206.766 82.9226C203.928 84.5302 200.428 85.0099 197.032 85.1709C196.166 85.2328 195.297 85.2139 194.433 85.1144C192.759 84.924 191.189 84.075 189.977 82.7047C189.89 82.6383 189.819 82.5472 189.771 82.4399C189.722 82.3326 189.698 82.2126 189.699 82.091C189.701 81.9695 189.729 81.8504 189.78 81.7449C189.831 81.6394 189.904 81.5509 189.993 81.4877C191.8 79.1518 194.817 77.7195 197.856 76.6882C200.16 75.9062 204.179 73.8807 206.692 74.1541C209.126 74.4189 209.975 77.9716 209.618 79.697Z" fill="#3F3D56"/>
<path opacity="0.1" d="M209.618 79.697C209.335 81.0635 208.116 82.1579 206.766 82.9226C203.928 84.5302 200.428 85.0099 197.032 85.1709C196.166 85.2328 195.297 85.2139 194.433 85.1144C192.759 84.924 191.189 84.075 189.977 82.7047C189.89 82.6383 189.819 82.5472 189.771 82.4399C189.722 82.3326 189.698 82.2126 189.699 82.091C189.701 81.9695 189.729 81.8504 189.78 81.7449C189.831 81.6394 189.904 81.5509 189.993 81.4877C191.8 79.1518 194.817 77.7195 197.856 76.6882C200.16 75.9062 204.179 73.8807 206.692 74.1541C209.126 74.4189 209.975 77.9716 209.618 79.697Z" fill="black"/>
<path d="M173.532 69.4833C172.665 71.4806 172.509 73.8007 173.096 75.934C173.693 78.0511 174.811 79.9121 176.308 81.2815C179.98 84.744 185.033 85.2205 189.739 85.1724C193.864 85.1302 197.982 84.7982 202.073 84.178C203.444 84.0351 204.791 83.6672 206.075 83.085C207.611 82.3033 208.961 80.8694 209.507 79.0088C210.054 77.1482 209.666 74.8698 208.367 73.6281C207.226 72.537 205.653 72.387 204.185 72.2832L195.787 71.6895C196.616 70.7017 197.721 70.143 198.731 69.4249C200.072 68.4722 200.963 66.8726 201.937 65.4305C203.439 63.319 205.073 61.3427 206.826 59.518C207.099 61.3625 208.091 62.8771 209.259 64.1497C210.426 65.4224 211.772 66.447 212.985 67.6587C215.924 70.5935 218.04 74.5767 221.13 77.2869C223.256 76.6297 225.244 75.4624 226.968 73.8584L225.767 71.2988C225.667 71.0354 225.511 70.8066 225.314 70.6344C224.974 70.3883 224.536 70.5151 224.141 70.4455C223.086 70.2593 222.625 68.8263 222.211 67.6694C221.074 64.4936 218.898 62.0296 217.039 59.3663C215.667 57.4003 214.45 55.2916 213.403 53.0662C212.779 51.739 212.207 50.3571 211.36 49.2136C210.512 48.0702 209.325 47.1712 208.035 47.168C206.896 47.1651 205.845 47.8456 204.865 48.5301C201.882 50.6149 199.011 52.9156 196.27 55.419C194.835 56.7291 193.409 58.1133 191.726 58.9167C191.018 59.2549 190.271 59.4861 189.591 59.8976C188.401 60.6184 187.497 61.8379 186.524 62.9205C183.055 66.7816 178.305 69.2832 173.532 69.4833Z" fill="#3F3D56"/>
<path d="M191.093 42.0016C191.054 43.1819 190.841 44.3451 190.462 45.4392C190.271 45.9849 189.985 46.4783 189.625 46.8885C189.264 47.2988 188.835 47.6172 188.364 47.8238C187.697 48.0343 186.997 48.061 186.319 47.9019C185.728 47.8293 185.158 47.601 184.652 47.2341C183.865 46.5972 183.472 45.4607 183.329 44.3486C183.186 43.2377 183.25 42.1026 183.159 40.9837C183.069 40.0799 182.923 39.1852 182.721 38.3069C182.659 38.0147 182.597 37.7239 182.535 37.433C182.474 37.1422 182.415 36.8513 182.36 36.5605C182.309 36.2872 182.262 36.0125 182.222 35.7365C182.189 35.5035 182.159 35.2692 182.138 35.0336C182.117 34.335 182.019 33.6427 181.843 32.9748C181.679 32.5417 181.473 32.1319 181.23 31.7536C181.126 31.5785 181.025 31.4035 180.932 31.2217C180.664 30.7493 180.539 30.1842 180.579 29.618C180.59 29.5305 180.608 29.4444 180.632 29.3609C180.641 29.3285 180.652 29.2963 180.663 29.2653C180.766 29.2324 180.861 29.1704 180.939 29.0848C181.017 28.9991 181.076 28.8924 181.111 28.7738C181.15 28.519 181.132 28.2566 181.057 28.013C180.971 27.6727 180.854 27.3444 180.708 27.0341C180.612 26.8295 180.286 26.4605 180.283 26.2262C180.279 25.755 181.062 25.3752 181.379 25.1894C182.346 24.6193 183.426 24.3619 184.506 24.4435C185.198 24.4987 185.949 24.7491 186.332 25.4318C186.675 26.0471 186.629 26.8443 186.776 27.5592C186.791 27.6632 186.828 27.7609 186.884 27.8433C186.959 27.9234 187.053 27.9742 187.153 27.9888C187.323 28.0284 187.497 28.0366 187.668 28.013H187.67C187.715 28.0088 187.76 28.0011 187.805 27.9901C188.072 27.9321 188.325 27.8036 188.544 27.6144C188.686 27.57 188.829 27.5337 188.973 27.5054C188.979 27.5047 188.985 27.5033 188.99 27.5013C189.564 29.6301 189.638 31.9124 190.108 34.0803C190.34 35.1588 190.673 36.2239 190.72 37.3334C190.723 37.3818 190.725 37.4316 190.726 37.4815C190.733 37.8383 190.709 38.1978 190.721 38.5533C190.726 38.7133 190.741 38.8727 190.767 39.0299C190.818 39.2827 190.882 39.5318 190.958 39.7759L190.962 39.788C190.983 39.8661 191.004 39.9455 191.021 40.025C191.034 40.0829 191.045 40.1394 191.054 40.1973L191.055 40.2014C191.14 40.7964 191.153 41.4025 191.093 42.0016V42.0016Z" fill="#FBBEBE"/>
<path d="M183.06 28.0789C186.79 28.0789 189.813 24.5222 189.813 20.1347C189.813 15.7472 186.79 12.1904 183.06 12.1904C179.33 12.1904 176.307 15.7472 176.307 20.1347C176.307 24.5222 179.33 28.0789 183.06 28.0789Z" fill="#FBBEBE"/>
<path d="M225.935 63.4184C225.739 61.251 225.085 59.176 224.031 57.3834C224.206 58.6087 224.381 59.8336 224.557 61.058C224.338 61.1324 224.106 61.1301 223.889 61.0515C223.671 60.9728 223.478 60.8211 223.332 60.615C223.048 60.1973 222.83 59.7224 222.69 59.2133C221.923 56.9728 220.92 54.8544 219.704 52.9077C215.405 52.4863 211.155 50.3898 207.374 47.9459C203.592 45.5034 200.053 42.5748 196.321 40.0286C195.674 39.5686 195 39.1636 194.304 38.8168C193.137 38.2661 191.826 37.9806 190.719 37.333C190.645 37.2899 190.571 37.2441 190.497 37.197C190.247 37.037 190.01 36.8499 189.79 36.6382C189.671 36.5243 189.558 36.402 189.451 36.2719C188.899 35.5161 188.461 34.6544 188.157 33.7244C187.562 32.1786 187.351 30.3137 186.758 28.768C187.03 28.4684 187.336 28.2142 187.668 28.0126H187.669C187.717 27.983 187.765 27.9547 187.814 27.9278C188.049 27.7978 188.293 27.6928 188.543 27.614C188.685 27.5696 188.828 27.5333 188.973 27.505C188.978 27.5043 188.984 27.5029 188.99 27.5009C189.659 27.3728 190.344 27.4365 190.987 27.6867C191.928 28.0611 192.721 28.8084 193.512 29.5153C194.797 30.5802 196.03 31.7301 197.204 32.9596C197.856 33.6947 198.451 34.5026 199.153 35.1705C199.736 35.6999 200.351 36.1791 200.992 36.6045C204.789 39.2652 208.586 41.9253 212.384 44.5851C213.669 45.4859 214.956 46.3867 216.213 47.34C218.122 48.7888 219.963 50.3588 221.802 51.9275C222.886 52.8512 223.97 53.7753 225.053 54.6999C225.408 54.9666 225.72 55.3058 225.974 55.7017C226.199 56.1511 226.338 56.6522 226.383 57.1707C226.655 59.2656 226.501 61.4065 225.935 63.4184V63.4184Z" fill="#FBBEBE"/>
<path d="M192.768 47.9754C192.312 50.3789 190.247 51.8318 189.168 53.9431C187.826 56.5633 188.373 59.6091 188.877 62.6104C187.957 63.5435 187.036 64.4766 186.115 65.4097C185.607 65.9227 185.099 66.4384 184.552 66.8922C183.754 67.521 182.92 68.0843 182.056 68.578C181.241 69.0708 180.426 69.5641 179.611 70.0578C178.854 70.5589 178.051 70.959 177.218 71.2507C175.612 71.7355 173.906 71.3962 172.318 70.8347C172.13 70.7769 171.95 70.6904 171.782 70.5775C171.683 70.508 171.596 70.416 171.528 70.3069C171.371 69.9765 171.314 69.5935 171.366 69.2203C171.528 66.0749 172.181 62.9955 172.833 59.9389C173.181 58.1052 173.649 56.3059 174.233 54.557C174.805 53.0585 175.463 51.6073 176.203 50.2133C177.018 48.4594 177.985 46.8085 179.087 45.2865C179.624 44.7007 180.075 44.0158 180.424 43.2587C180.83 42.1681 180.674 40.9172 180.756 39.7296C180.819 38.8373 181.02 37.9662 181.35 37.1592V37.1578C181.526 36.7231 181.739 36.31 181.984 35.9244C182.095 36.2287 182.206 36.5326 182.317 36.836C182.39 37.0353 182.463 37.2341 182.535 37.4325C182.629 37.6883 182.722 37.9433 182.814 38.1973C183.081 38.9271 183.347 39.6564 183.613 40.3853C183.9 41.3034 184.31 42.1619 184.826 42.9289C185.062 43.3216 185.381 43.6356 185.751 43.8402C186.121 44.0448 186.53 44.133 186.937 44.0962C187.345 44.0595 187.738 43.899 188.077 43.6304C188.416 43.3618 188.69 42.9944 188.873 42.5639C189.257 41.7605 189.536 40.8928 189.699 39.9908C189.925 38.8925 189.956 37.7512 189.791 36.6381C189.515 34.4945 188.74 32.3051 188.177 30.3137C187.947 29.6497 187.815 28.945 187.784 28.2293C187.785 28.1489 187.792 28.0687 187.805 27.9896C187.808 27.9694 187.811 27.9479 187.815 27.9277C188.049 27.7977 188.293 27.6927 188.544 27.614C188.686 27.5695 188.829 27.5332 188.973 27.5049C189.469 30.661 189.965 33.8172 190.462 36.9733C190.474 37.0474 190.486 37.1215 190.498 37.1969C190.569 37.6493 190.641 38.1017 190.721 38.5528C190.793 38.9621 190.871 39.3701 190.958 39.7754L190.962 39.7875C190.991 39.9249 191.022 40.0608 191.054 40.1968L191.055 40.2009C191.144 40.5725 191.242 40.9414 191.353 41.305C192.026 43.4957 193.199 45.7012 192.768 47.9754Z" fill="#368F5C"/>
<path d="M220.175 81.7524C220.154 82.2154 220.23 82.6774 220.397 83.0974C220.82 84.0061 221.834 84.2127 222.712 84.2976C227.838 84.7933 232.995 84.6085 238.086 83.7466C238.363 83.7244 238.631 83.6265 238.869 83.4609C239.593 82.8639 239.147 81.409 238.356 80.9432C237.566 80.4775 236.628 80.5897 235.761 80.388C234.899 80.1329 234.079 79.7143 233.332 79.1487C231.573 77.9601 229.84 76.7208 228.132 75.431C227.116 74.663 225.916 73.8435 224.771 74.2988C221.67 75.5329 220.155 77.8171 220.175 81.7524Z" fill="#3F3D56"/>
<path d="M182.386 36.392V36.3933C182.378 36.4499 182.37 36.5051 182.36 36.5603C182.347 36.6519 182.332 36.7448 182.317 36.8363C182.175 37.6913 182.001 38.5423 181.801 39.3879C181.252 41.724 180.516 44.0225 179.785 46.2873C177.826 52.3599 175.866 58.433 173.905 64.5065C173.411 66.0361 172.918 67.5671 172.356 69.0657C172.168 69.5653 171.974 70.0688 171.782 70.5778C171.093 72.3996 170.431 74.2806 170.212 76.2196C170.007 77.4957 169.983 78.8029 170.142 80.088C170.362 81.3591 171.018 82.6006 172.044 83.0705C172.546 83.3007 173.263 83.6091 173.126 84.2217C173.052 84.5583 172.726 84.7226 172.435 84.7792C172.049 84.8514 171.655 84.823 171.28 84.696C170.905 84.5689 170.558 84.3463 170.264 84.044C169.716 83.4718 169.295 82.5817 168.566 82.4861C168.061 82.4215 167.596 82.777 167.134 83.0261C165.247 84.04 163.05 83.3304 161.068 82.61C161.224 81.6661 162.03 81.044 162.83 80.8555C163.63 80.6657 164.458 80.8003 165.274 80.7747C165.535 80.7911 165.794 80.7126 166.017 80.5499C166.216 80.3348 166.355 80.0543 166.417 79.7447C166.943 77.9123 167.334 76.0302 167.586 74.1191C167.849 72.1222 167.959 70.0944 168.334 68.1218C168.626 66.5828 169.077 65.0923 169.464 63.5815C170.212 60.4709 170.827 57.318 171.305 54.1346C171.547 52.812 171.72 51.4734 171.823 50.1261C171.889 49.0085 171.858 47.8855 171.949 46.772C172.103 45.3233 172.36 43.8923 172.717 42.4942C173.068 40.9687 173.417 39.444 173.767 37.9202C174.285 35.6649 174.842 33.322 176.156 31.5689C176.612 30.9517 177.171 30.4513 177.799 30.0988C178.426 29.7463 179.109 29.5491 179.804 29.5195C180.064 29.5192 180.324 29.5521 180.579 29.6178C180.621 29.6299 180.663 29.6421 180.706 29.6555C180.983 29.7408 181.249 29.8704 181.497 30.0406C181.902 29.7377 182.108 29.844 182.377 30.3113C182.613 30.8057 182.724 31.369 182.697 31.9351C182.72 33.4292 182.616 34.9223 182.386 36.392Z" fill="#FBBEBE"/>
<path d="M182.832 38.1771L182.815 38.1973L182.722 38.3064L181.802 39.3876L181.351 37.1592L179.805 29.5192C180.065 29.5189 180.325 29.5518 180.58 29.6175C180.591 29.53 180.609 29.4439 180.633 29.3604L180.707 29.6552L181.231 31.753L182.223 35.7359L182.387 36.3917V36.393L182.832 38.1771Z" fill="#368F5C"/>
<path d="M188.672 13.8038C188.671 14.5112 188.552 15.2116 188.321 15.8647C188.09 16.5179 187.752 17.1111 187.326 17.6105C187.171 17.7922 187.006 17.9605 186.831 18.1138C186.041 18.8143 185.079 19.1934 184.09 19.194H178.598C177.385 19.1917 176.222 18.6232 175.364 17.6131C174.507 16.6029 174.025 15.2339 174.025 13.8064C174.025 12.379 174.507 11.01 175.364 9.99985C176.222 8.98973 177.385 8.42115 178.598 8.41895H184.09C185.303 8.42266 186.466 8.99102 187.325 9.99993C188.183 11.0088 188.667 12.3763 188.672 13.8038V13.8038Z" fill="#2F2E41"/>
<path d="M193.82 14.2101C196.412 14.2101 198.513 11.7385 198.513 8.68953C198.513 5.64059 196.412 3.16895 193.82 3.16895C191.228 3.16895 189.127 5.64059 189.127 8.68953C189.127 11.7385 191.228 14.2101 193.82 14.2101Z" fill="#2F2E41"/>
<path opacity="0.1" d="M193.705 3.16895C193.647 3.16895 193.59 3.17163 193.533 3.17405C194.747 3.22597 195.897 3.82979 196.74 4.85847C197.583 5.88715 198.054 7.26049 198.054 8.68953C198.054 10.1186 197.583 11.4919 196.74 12.5206C195.897 13.5493 194.747 14.1531 193.533 14.205C193.59 14.2074 193.647 14.2101 193.705 14.2101C194.95 14.2101 196.143 13.6285 197.023 12.5932C197.903 11.5579 198.398 10.1537 198.398 8.68953C198.398 7.22538 197.903 5.8212 197.023 4.78589C196.143 3.75058 194.95 3.16895 193.705 3.16895V3.16895Z" fill="black"/>
<path opacity="0.1" d="M171.384 3.16895C171.442 3.16895 171.499 3.17163 171.556 3.17405C170.342 3.22597 169.192 3.82979 168.349 4.85847C167.506 5.88715 167.035 7.26049 167.035 8.68953C167.035 10.1186 167.506 11.4919 168.349 12.5206C169.192 13.5493 170.342 14.1531 171.556 14.205C171.499 14.2074 171.442 14.2101 171.384 14.2101C170.14 14.2088 168.948 13.6266 168.068 12.5914C167.189 11.5563 166.695 10.1528 166.695 8.68953C166.695 7.22622 167.189 5.82277 168.068 4.7876C168.948 3.75244 170.14 3.17023 171.384 3.16895Z" fill="black"/>
<path opacity="0.1" d="M186.829 18.1143C186.039 18.8147 185.077 19.1938 184.088 19.1944H178.597C177.608 19.1938 176.645 18.8147 175.855 18.1143H186.829Z" fill="black"/>
<path d="M222.291 58.1158C222.291 58.1158 223.474 62.126 224.557 61.0583L223.694 55.8164L222.291 58.1158Z" fill="#FBBEBE"/>
<path d="M366.262 180.411C367.364 180.882 368.544 181.046 369.709 180.889C370.874 180.732 371.992 180.259 372.975 179.508C373.958 178.756 374.779 177.746 375.374 176.557C375.968 175.369 376.32 174.034 376.401 172.658C376.483 171.282 376.291 169.902 375.842 168.628C375.393 167.354 374.698 166.22 373.813 165.316C372.927 164.412 371.876 163.762 370.74 163.417C369.605 163.073 368.417 163.043 367.27 163.33L367.46 167.914L365.616 163.986C363.807 164.986 362.409 166.79 361.73 169.002C361.489 169.777 361.342 170.588 361.294 171.411C361.178 173.343 361.6 175.266 362.496 176.89C363.393 178.514 364.715 179.75 366.262 180.411V180.411Z" fill="#57B894"/>
<path d="M375.385 233.576C374.734 229.678 377.554 226.222 380.34 223.975C383.126 221.729 386.38 219.521 387.331 215.709C388.697 210.23 384.628 205.213 381.461 200.886C379.112 197.674 377.094 194.147 375.451 190.377C374.792 188.865 374.186 187.285 374.013 185.599C373.763 183.17 374.426 180.754 375.095 178.437C377.321 170.72 379.701 163.067 382.235 155.479" stroke="#3F3D56" stroke-miterlimit="10"/>
<path d="M366.575 179.23C367.677 179.701 368.856 179.865 370.021 179.708C371.186 179.552 372.304 179.079 373.287 178.327C374.27 177.575 375.092 176.565 375.686 175.377C376.281 174.188 376.633 172.853 376.714 171.477C376.795 170.101 376.604 168.722 376.154 167.448C375.705 166.174 375.01 165.04 374.125 164.135C373.24 163.231 372.188 162.581 371.053 162.237C369.917 161.892 368.73 161.862 367.583 162.15L367.772 166.734L365.929 162.805C364.119 163.805 362.721 165.61 362.042 167.822C361.801 168.596 361.655 169.407 361.607 170.231C361.49 172.162 361.912 174.085 362.809 175.709C363.705 177.333 365.027 178.569 366.575 179.23V179.23Z" stroke="#3F3D56" stroke-miterlimit="10"/>
<path d="M374.46 153.897C374.892 152.493 375.618 151.24 376.57 150.253C377.523 149.266 378.671 148.577 379.909 148.249L380.532 152.607L381.688 148.03C383.293 148.058 384.848 148.685 386.13 149.821C387.412 150.957 388.354 152.542 388.82 154.349C389.286 156.155 389.251 158.089 388.722 159.871C388.193 161.654 387.196 163.192 385.875 164.264C384.554 165.336 382.977 165.886 381.373 165.836C379.769 165.785 378.22 165.136 376.95 163.983C375.679 162.829 374.754 161.23 374.306 159.418C373.859 157.605 373.912 155.671 374.46 153.897H374.46Z" fill="#57B894"/>
<path d="M374.876 152.323C375.308 150.919 376.034 149.666 376.986 148.679C377.939 147.692 379.087 147.003 380.325 146.675L380.948 151.033L382.104 146.456C383.709 146.484 385.264 147.111 386.546 148.247C387.828 149.383 388.77 150.968 389.236 152.775C389.702 154.581 389.667 156.515 389.138 158.297C388.609 160.079 387.612 161.618 386.291 162.69C384.97 163.762 383.393 164.312 381.789 164.262C380.185 164.211 378.636 163.562 377.366 162.409C376.095 161.255 375.17 159.656 374.722 157.843C374.275 156.03 374.328 154.097 374.876 152.323H374.876Z" stroke="#3F3D56" stroke-miterlimit="10"/>
<path d="M380.132 200.974C381.879 201.72 383.799 201.683 385.525 200.871C387.251 200.058 388.662 198.527 389.491 196.569C390.319 194.611 390.505 192.364 390.015 190.254C389.525 188.145 388.392 186.321 386.832 185.132L385.944 188.649L385.314 184.24C385.308 184.236 385.301 184.233 385.295 184.231C384.36 183.831 383.368 183.652 382.374 183.704C381.381 183.756 380.405 184.037 379.504 184.533C378.603 185.028 377.794 185.727 377.123 186.59C376.452 187.454 375.932 188.464 375.592 189.564C375.253 190.664 375.102 191.831 375.146 193C375.191 194.169 375.431 195.316 375.852 196.375C376.274 197.435 376.869 198.386 377.603 199.176C378.337 199.965 379.197 200.576 380.132 200.974H380.132Z" fill="#57B894"/>
<path d="M380.491 199.38C382.239 200.126 384.158 200.089 385.884 199.277C387.61 198.464 389.022 196.933 389.85 194.976C390.678 193.018 390.865 190.77 390.374 188.66C389.884 186.551 388.751 184.728 387.191 183.538L386.303 187.055L385.674 182.646C385.667 182.642 385.661 182.639 385.654 182.637C384.72 182.238 383.727 182.059 382.733 182.11C381.74 182.162 380.765 182.444 379.864 182.939C378.963 183.434 378.153 184.133 377.482 184.997C376.811 185.86 376.291 186.87 375.952 187.97C375.613 189.07 375.461 190.237 375.506 191.406C375.55 192.575 375.79 193.722 376.212 194.782C376.633 195.841 377.228 196.793 377.962 197.582C378.697 198.371 379.556 198.982 380.491 199.38H380.491Z" stroke="#3F3D56" stroke-miterlimit="10"/>
<path d="M372.249 215.764C372.55 217.775 373.429 219.604 374.739 220.943C376.05 222.282 377.712 223.051 379.447 223.12C381.182 223.188 382.884 222.553 384.268 221.321C385.653 220.088 386.634 218.333 387.049 216.35C387.464 214.368 387.287 212.277 386.547 210.43C385.807 208.582 384.55 207.09 382.986 206.204C381.422 205.318 379.646 205.091 377.957 205.562C376.268 206.033 374.768 207.173 373.708 208.79L377.081 214.762L372.472 211.593C372.115 212.942 372.038 214.373 372.249 215.764V215.764Z" fill="#57B894"/>
<path d="M372.562 214.583C372.862 216.595 373.741 218.423 375.052 219.762C376.362 221.102 378.025 221.87 379.759 221.939C381.494 222.008 383.197 221.372 384.581 220.14C385.965 218.908 386.947 217.153 387.362 215.17C387.777 213.187 387.599 211.096 386.859 209.249C386.119 207.402 384.862 205.91 383.298 205.024C381.734 204.137 379.959 203.911 378.269 204.381C376.58 204.852 375.08 205.992 374.02 207.61L377.394 213.582L372.785 210.412C372.427 211.761 372.351 213.192 372.562 214.583V214.583Z" stroke="#3F3D56" stroke-miterlimit="10"/>
<path d="M3.27634 202.105C4.00034 202.415 4.77558 202.523 5.54095 202.42C6.30632 202.317 7.04091 202.006 7.68681 201.512C8.3327 201.018 8.87226 200.355 9.26294 199.574C9.65362 198.793 9.88475 197.916 9.93812 197.012C9.99148 196.108 9.86562 195.201 9.57045 194.364C9.27528 193.527 8.81887 192.782 8.2372 192.188C7.65552 191.594 6.96449 191.167 6.21855 190.94C5.47262 190.714 4.69218 190.695 3.93875 190.883L4.06326 193.895L2.85197 191.314C1.66315 191.971 0.744744 193.157 0.298565 194.61C0.140108 195.119 0.0437777 195.652 0.0124483 196.193C-0.0640091 197.462 0.213256 198.725 0.802227 199.792C1.3912 200.859 2.25977 201.671 3.27634 202.105V202.105Z" fill="#57B894"/>
<path d="M9.27105 237.036C8.84346 234.475 10.6963 232.204 12.5264 230.728C14.3566 229.252 16.495 227.802 17.1195 225.298C18.017 221.698 15.3437 218.401 13.2631 215.558C11.7194 213.448 10.3938 211.131 9.31393 208.654C8.84445 207.681 8.52468 206.618 8.36934 205.515C8.20528 203.919 8.64108 202.331 9.08011 200.809C10.5427 195.739 12.1064 190.711 13.7713 185.726" stroke="#3F3D56" stroke-miterlimit="10"/>
<path d="M3.48142 201.33C4.20542 201.64 4.98066 201.747 5.74603 201.644C6.5114 201.541 7.24598 201.231 7.89188 200.737C8.53778 200.243 9.07733 199.579 9.46801 198.798C9.85869 198.017 10.0898 197.14 10.1432 196.236C10.1965 195.332 10.0707 194.426 9.77552 193.589C9.48035 192.752 9.02394 192.007 8.44227 191.413C7.8606 190.819 7.16956 190.391 6.42363 190.165C5.6777 189.939 4.89726 189.919 4.14384 190.108L4.26834 193.12L3.05705 190.539C1.86823 191.196 0.949822 192.381 0.503643 193.834C0.345188 194.344 0.248859 194.876 0.217528 195.417C0.141066 196.686 0.418329 197.95 1.0073 199.017C1.59627 200.084 2.46485 200.896 3.48142 201.33V201.33Z" stroke="#3F3D56" stroke-miterlimit="10"/>
<path d="M8.66155 184.685C8.94568 183.763 9.42255 182.94 10.0482 182.292C10.6739 181.643 11.4283 181.19 12.2418 180.975L12.6513 183.838L13.4106 180.831C14.4649 180.849 15.4869 181.261 16.3291 182.008C17.1713 182.754 17.7902 183.796 18.0963 184.983C18.4024 186.169 18.3799 187.44 18.0321 188.611C17.6843 189.782 17.0292 190.792 16.1613 191.497C15.2935 192.201 14.2578 192.563 13.2038 192.53C12.1498 192.496 11.132 192.07 10.2974 191.312C9.46286 190.554 8.85464 189.504 8.5606 188.313C8.26656 187.122 8.30191 185.851 8.66155 184.685V184.685Z" fill="#57B894"/>
<path d="M8.93499 183.651C9.21912 182.729 9.69599 181.906 10.3217 181.257C10.9473 180.609 11.7017 180.156 12.5152 179.941L12.9248 182.804L13.6841 179.797C14.7383 179.815 15.7603 180.227 16.6026 180.974C17.4448 181.72 18.0636 182.761 18.3697 183.948C18.6758 185.135 18.6533 186.406 18.3055 187.577C17.9578 188.748 17.3026 189.758 16.4348 190.463C15.5669 191.167 14.5312 191.529 13.4772 191.495C12.4232 191.462 11.4055 191.036 10.5709 190.278C9.7363 189.52 9.12808 188.47 8.83404 187.278C8.54 186.087 8.57535 184.817 8.93499 183.651V183.651Z" stroke="#3F3D56" stroke-miterlimit="10"/>
<path d="M12.3888 215.615C13.537 216.105 14.7983 216.081 15.9323 215.548C17.0663 215.014 17.9937 214.008 18.5377 212.722C19.0818 211.435 19.2044 209.958 18.8822 208.572C18.5601 207.186 17.8157 205.988 16.7909 205.207L16.2075 207.517L15.7937 204.621C15.7897 204.618 15.7854 204.616 15.7811 204.615C15.1669 204.352 14.5148 204.234 13.8619 204.268C13.209 204.302 12.5683 204.487 11.9762 204.813C11.3841 205.138 10.8523 205.597 10.4112 206.165C9.97015 206.732 9.62842 207.396 9.40557 208.118C9.18271 208.841 9.0831 209.608 9.11243 210.376C9.14176 211.144 9.29946 211.898 9.5765 212.594C9.85355 213.29 10.2445 213.916 10.7271 214.434C11.2096 214.952 11.7743 215.354 12.3888 215.615V215.615Z" fill="#57B894"/>
<path d="M12.6254 214.568C13.7736 215.058 15.0349 215.034 16.1689 214.5C17.3029 213.966 18.2303 212.96 18.7743 211.674C19.3184 210.388 19.441 208.911 19.1189 207.525C18.7967 206.139 18.0523 204.941 17.0275 204.159L16.4441 206.47L16.0304 203.573C16.0263 203.571 16.022 203.569 16.0177 203.568C15.4037 203.306 14.7518 203.188 14.0993 203.223C13.4467 203.257 12.8063 203.442 12.2147 203.768C11.0197 204.425 10.0957 205.614 9.6458 207.073C9.19595 208.531 9.25714 210.14 9.81592 211.546C10.3747 212.952 11.3853 214.039 12.6254 214.568V214.568Z" stroke="#3F3D56" stroke-miterlimit="10"/>
<path d="M7.21118 225.333C7.4086 226.655 7.98628 227.856 8.84732 228.736C9.70837 229.616 10.8004 230.121 11.9403 230.166C13.0803 230.211 14.1987 229.794 15.1081 228.984C16.0176 228.174 16.6626 227.021 16.9352 225.718C17.2077 224.416 17.0912 223.042 16.605 221.828C16.1189 220.615 15.2928 219.634 14.2653 219.052C13.2377 218.47 12.0712 218.321 10.9614 218.63C9.85155 218.94 8.86589 219.688 8.1697 220.751L10.3859 224.675L7.35775 222.592C7.12296 223.479 7.07269 224.419 7.21118 225.333V225.333Z" fill="#57B894"/>
<path d="M7.41626 224.558C7.61368 225.879 8.19135 227.081 9.0524 227.96C9.91345 228.84 11.0055 229.345 12.1454 229.39C13.2853 229.436 14.4038 229.018 15.3132 228.209C16.2226 227.399 16.8677 226.246 17.1402 224.943C17.4128 223.64 17.2962 222.267 16.8101 221.053C16.324 219.839 15.4979 218.859 14.4703 218.277C13.4428 217.694 12.2763 217.545 11.1665 217.855C10.0566 218.164 9.07096 218.913 8.37478 219.976L10.591 223.9L7.56283 221.817C7.32804 222.704 7.27777 223.644 7.41626 224.558V224.558Z" stroke="#3F3D56" stroke-miterlimit="10"/>
<path d="M174.952 146.848C178.367 146.848 181.136 142.633 181.136 137.434C181.136 132.234 178.367 128.02 174.952 128.02C171.536 128.02 168.768 132.234 168.768 137.434C168.768 142.633 171.536 146.848 174.952 146.848Z" fill="#2F2E41"/>
<path d="M208.6 147.062C212.015 147.062 214.784 142.847 214.784 137.647C214.784 132.448 212.015 128.233 208.6 128.233C205.185 128.233 202.416 132.448 202.416 137.647C202.416 142.847 205.185 147.062 208.6 147.062Z" fill="#2F2E41"/>
<path d="M203.872 165.461C203.872 169.715 198.823 173.164 192.595 173.164C186.367 173.164 181.318 169.715 181.318 165.461C181.318 161.777 185.105 158.696 190.165 157.943C190.971 157.818 191.783 157.756 192.595 157.759C193.957 157.754 195.314 157.926 196.644 158.272C200.871 159.381 203.872 162.184 203.872 165.461Z" fill="#2F2E41"/>
<path d="M176.407 144.708C179.822 144.708 182.591 140.493 182.591 135.294C182.591 130.095 179.822 125.88 176.407 125.88C172.991 125.88 170.223 130.095 170.223 135.294C170.223 140.493 172.991 144.708 176.407 144.708Z" stroke="#3F3D56" stroke-miterlimit="10"/>
<path d="M210.055 144.922C213.47 144.922 216.239 140.707 216.239 135.508C216.239 130.309 213.47 126.094 210.055 126.094C206.64 126.094 203.871 130.309 203.871 135.508C203.871 140.707 206.64 144.922 210.055 144.922Z" stroke="#3F3D56" stroke-miterlimit="10"/>
<path d="M194.05 171.025C200.278 171.025 205.327 167.576 205.327 163.323C205.327 159.069 200.278 155.62 194.05 155.62C187.822 155.62 182.773 159.069 182.773 163.323C182.773 167.576 187.822 171.025 194.05 171.025Z" stroke="#3F3D56" stroke-miterlimit="10"/>
<path d="M196.778 158.914C196.78 159.452 196.609 159.972 196.297 160.366C196.15 160.555 195.972 160.706 195.773 160.809C195.573 160.913 195.358 160.967 195.141 160.968H191.503C191.055 160.95 190.631 160.724 190.324 160.339C190.017 159.954 189.853 159.442 189.866 158.914C189.864 158.497 189.968 158.089 190.164 157.741C190.969 157.608 191.781 157.542 192.594 157.545C193.957 157.54 195.316 157.724 196.643 158.093C196.733 158.354 196.778 158.633 196.778 158.914V158.914Z" fill="white"/>
<path d="M176.407 134.866C177.411 134.866 178.226 133.908 178.226 132.726C178.226 131.545 177.411 130.587 176.407 130.587C175.402 130.587 174.588 131.545 174.588 132.726C174.588 133.908 175.402 134.866 176.407 134.866Z" fill="white"/>
<path d="M210.237 134.866C211.241 134.866 212.056 133.908 212.056 132.726C212.056 131.545 211.241 130.587 210.237 130.587C209.232 130.587 208.418 131.545 208.418 132.726C208.418 133.908 209.232 134.866 210.237 134.866Z" fill="white"/>
<path opacity="0.3" d="M212.055 154.978C213.06 154.978 213.874 154.02 213.874 152.839C213.874 151.657 213.06 150.699 212.055 150.699C211.051 150.699 210.236 151.657 210.236 152.839C210.236 154.02 211.051 154.978 212.055 154.978Z" fill="#368F5C"/>
<path opacity="0.3" d="M167.676 154.978C168.681 154.978 169.495 154.02 169.495 152.839C169.495 151.657 168.681 150.699 167.676 150.699C166.672 150.699 165.857 151.657 165.857 152.839C165.857 154.02 166.672 154.978 167.676 154.978Z" fill="#368F5C"/>
</g>
<defs>
<clipPath id="clip0">
<rect width="390.827" height="250" fill="white" transform="translate(0 0.879883)"/>
</clipPath>
</defs>
</svg>
