<svg width="240" height="427" viewBox="0 0 240 427" fill="none" xmlns="http://www.w3.org/2000/svg">
<g clip-path="url(#clip0)">
<path d="M186.401 400.454H59.0465C54.4057 400.454 49.8103 399.54 45.5227 397.764C41.2351 395.988 37.3393 393.385 34.0577 390.104C30.7761 386.822 28.173 382.926 26.397 378.639C24.6211 374.351 23.707 369.756 23.707 365.115V35.3395C23.7176 25.9701 27.4443 16.9876 34.0694 10.3624C40.6946 3.73727 49.6772 0.0106066 59.0465 0H186.4C195.77 0.0105775 204.752 3.73723 211.378 10.3624C218.003 16.9875 221.729 25.9701 221.74 35.3395V94.9021H223.934V138.788H221.74V365.115C221.74 374.487 218.017 383.476 211.389 390.103C204.762 396.731 195.773 400.454 186.401 400.454V400.454ZM59.0465 1.09747C49.9681 1.10772 41.2645 4.71865 34.8451 11.1381C28.4257 17.5575 24.8148 26.2611 24.8045 35.3395V365.115C24.8044 369.611 25.6901 374.064 27.4109 378.219C29.1317 382.373 31.6539 386.148 34.8336 389.328C38.0133 392.507 41.7881 395.029 45.9425 396.75C50.097 398.471 54.5497 399.357 59.0464 399.357H186.4C195.482 399.357 204.191 395.749 210.613 389.328C217.035 382.906 220.642 374.196 220.643 365.115V137.69H222.837V95.9996H220.643V35.3395C220.632 26.2611 217.021 17.5575 210.602 11.1381C204.183 4.71865 195.479 1.10772 186.4 1.09747H59.0465Z" fill="#3F3D56"/>
<path d="M187.803 391.403H59.838C52.804 391.395 46.0604 388.598 41.0865 383.624C36.1127 378.65 33.3148 371.906 33.3066 364.872V35.5821C33.3148 28.5481 36.1127 21.8045 41.0865 16.8306C46.0603 11.8568 52.804 9.05892 59.838 9.05078H76.1775L75.87 9.80636C75.1411 11.5975 74.8635 13.5404 75.0617 15.464C75.2599 17.3876 75.9277 19.2331 77.0065 20.838C78.0852 22.443 79.5418 23.7583 81.2482 24.6682C82.9546 25.5781 84.8584 26.0547 86.7922 26.0562H159.751C161.685 26.0547 163.589 25.578 165.295 24.668C167.002 23.7581 168.458 22.4428 169.537 20.8379C170.616 19.2329 171.284 17.3875 171.482 15.4639C171.68 13.5403 171.402 11.5975 170.673 9.80636L170.366 9.05078H187.803C194.837 9.05895 201.58 11.8568 206.554 16.8307C211.528 21.8045 214.326 28.5481 214.334 35.5821V364.872C214.326 371.906 211.528 378.65 206.554 383.624C201.58 388.598 194.837 391.395 187.803 391.403V391.403ZM59.838 10.1482C53.0949 10.156 46.6302 12.8382 41.8621 17.6063C37.094 22.3744 34.4119 28.839 34.4041 35.5821V364.872C34.412 371.615 37.0941 378.08 41.8622 382.848C46.6303 387.616 53.0949 390.298 59.838 390.306H187.803C194.546 390.298 201.011 387.616 205.779 382.848C210.547 378.08 213.229 371.615 213.237 364.872V35.5821C213.229 28.8391 210.547 22.3744 205.779 17.6063C201.011 12.8382 194.546 10.1561 187.803 10.1482H171.971C172.622 12.0874 172.802 14.1535 172.497 16.1762C172.193 18.1988 171.411 20.12 170.218 21.7812C169.024 23.4423 167.453 24.7958 165.633 25.73C163.813 26.6641 161.797 27.1521 159.752 27.1537H86.7918C84.7462 27.1521 82.7304 26.6642 80.9106 25.7301C79.0908 24.796 77.5193 23.4425 76.3257 21.7813C75.132 20.1202 74.3506 18.199 74.0457 16.1763C73.7409 14.1536 73.9215 12.0874 74.5725 10.1482H59.838Z" fill="#CCCCCC"/>
<path d="M228.409 214.426H11.5909C8.51787 214.423 5.57168 213.201 3.39871 211.028C1.22574 208.855 0.00345811 205.909 0 202.836V133.29C0.00345811 130.217 1.22574 127.271 3.39871 125.098C5.57168 122.925 8.51787 121.703 11.5909 121.699H228.409C231.482 121.703 234.428 122.925 236.601 125.098C238.774 127.271 239.997 130.217 240 133.29V202.836C239.997 205.909 238.774 208.855 236.601 211.028C234.428 213.201 231.482 214.423 228.409 214.426V214.426Z" fill="white"/>
<path d="M228.409 214.426H11.5909C8.51787 214.423 5.57168 213.201 3.39871 211.028C1.22574 208.855 0.00345811 205.909 0 202.836V133.29C0.00345811 130.217 1.22574 127.271 3.39871 125.098C5.57168 122.925 8.51787 121.703 11.5909 121.699H228.409C231.482 121.703 234.428 122.925 236.601 125.098C238.774 127.271 239.997 130.217 240 133.29V202.836C239.997 205.909 238.774 208.855 236.601 211.028C234.428 213.201 231.482 214.423 228.409 214.426V214.426ZM11.5909 123.063C8.87941 123.066 6.27985 124.144 4.36253 126.062C2.44521 127.979 1.3667 130.579 1.36363 133.29V202.836C1.3667 205.547 2.44521 208.147 4.36253 210.064C6.27985 211.981 8.87941 213.06 11.5909 213.063H228.409C231.121 213.06 233.72 211.981 235.637 210.064C237.555 208.147 238.633 205.547 238.636 202.836V133.29C238.633 130.579 237.555 127.979 235.637 126.062C233.72 124.144 231.121 123.066 228.409 123.063H11.5909Z" fill="#3F3D56"/>
<path d="M148.433 164.313H72.7514C71.3048 164.313 69.9174 163.739 68.8945 162.716C67.8716 161.693 67.2969 160.305 67.2969 158.859C67.2969 157.412 67.8716 156.025 68.8945 155.002C69.9174 153.979 71.3048 153.404 72.7514 153.404H148.433C149.88 153.404 151.267 153.979 152.29 155.002C153.313 156.025 153.888 157.412 153.888 158.859C153.888 160.305 153.313 161.693 152.29 162.716C151.267 163.739 149.88 164.313 148.433 164.313V164.313Z" fill="#368F5C"/>
<path d="M218.661 182.723H72.7514C71.3048 182.723 69.9174 182.148 68.8945 181.125C67.8716 180.102 67.2969 178.715 67.2969 177.268C67.2969 175.821 67.8716 174.434 68.8945 173.411C69.9174 172.388 71.3048 171.813 72.7514 171.813H218.661C220.107 171.813 221.495 172.388 222.517 173.411C223.54 174.434 224.115 175.821 224.115 177.268C224.115 178.715 223.54 180.102 222.517 181.125C221.495 182.148 220.107 182.723 218.661 182.723Z" fill="#368F5C"/>
<path d="M36.3413 188.518C47.638 188.518 56.7958 179.361 56.7958 168.064C56.7958 156.767 47.638 147.609 36.3413 147.609C25.0445 147.609 15.8867 156.767 15.8867 168.064C15.8867 179.361 25.0445 188.518 36.3413 188.518Z" fill="#368F5C"/>
<path d="M218.651 204.882H199.56C198.113 204.882 196.726 204.307 195.703 203.284C194.68 202.261 194.105 200.874 194.105 199.427C194.105 197.981 194.68 196.593 195.703 195.57C196.726 194.547 198.113 193.973 199.56 193.973H218.651C219.367 193.973 220.076 194.114 220.738 194.388C221.4 194.662 222.001 195.064 222.508 195.57C223.014 196.077 223.416 196.678 223.69 197.34C223.964 198.002 224.105 198.711 224.105 199.427C224.105 200.144 223.964 200.853 223.69 201.515C223.416 202.176 223.014 202.778 222.508 203.284C222.001 203.791 221.4 204.192 220.738 204.467C220.076 204.741 219.367 204.882 218.651 204.882V204.882Z" fill="white"/>
<path d="M218.651 204.882H199.56C198.113 204.882 196.726 204.307 195.703 203.284C194.68 202.261 194.105 200.874 194.105 199.427C194.105 197.981 194.68 196.593 195.703 195.57C196.726 194.547 198.113 193.973 199.56 193.973H218.651C219.367 193.973 220.076 194.114 220.738 194.388C221.4 194.662 222.001 195.064 222.508 195.57C223.014 196.077 223.416 196.678 223.69 197.34C223.964 198.002 224.105 198.711 224.105 199.427C224.105 200.144 223.964 200.853 223.69 201.515C223.416 202.176 223.014 202.778 222.508 203.284C222.001 203.791 221.4 204.192 220.738 204.467C220.076 204.741 219.367 204.882 218.651 204.882V204.882Z" fill="#CCCCCC"/>
<path d="M185.811 103.87H65.1645C63.4545 103.868 61.8152 103.188 60.606 101.978C59.3969 100.769 58.7168 99.1299 58.7148 97.4199V58.7221C58.7168 57.0121 59.3969 55.3728 60.606 54.1636C61.8152 52.9545 63.4545 52.2744 65.1645 52.2725H185.811C187.521 52.2744 189.16 52.9545 190.369 54.1636C191.578 55.3728 192.258 57.0121 192.26 58.7221V97.4199C192.258 99.1299 191.578 100.769 190.369 101.978C189.16 103.188 187.521 103.868 185.811 103.87V103.87ZM65.1645 53.0312C63.6557 53.0329 62.2092 53.6331 61.1424 54.6999C60.0755 55.7668 59.4753 57.2133 59.4736 58.7221V97.4199C59.4753 98.9287 60.0755 100.375 61.1424 101.442C62.2092 102.509 63.6557 103.109 65.1645 103.111H185.811C187.32 103.109 188.766 102.509 189.833 101.442C190.9 100.375 191.5 98.9287 191.502 97.4199V58.7221C191.5 57.2133 190.9 55.7668 189.833 54.6999C188.766 53.6331 187.32 53.0329 185.811 53.0312H65.1645Z" fill="#CCCCCC"/>
<path d="M141.307 75.9843H99.1951C98.3908 75.9832 97.6199 75.663 97.0516 75.0939C96.4833 74.5248 96.1641 73.7535 96.1641 72.9492C96.1641 72.1449 96.4833 71.3736 97.0516 70.8045C97.6199 70.2354 98.3908 69.9151 99.1951 69.9141H141.307C142.112 69.9151 142.883 70.2354 143.451 70.8045C144.019 71.3736 144.339 72.1449 144.339 72.9492C144.339 73.7535 144.019 74.5248 143.451 75.0939C142.883 75.663 142.112 75.9832 141.307 75.9843V75.9843Z" fill="#E6E6E6"/>
<path d="M180.385 86.2275H99.1951C98.3909 86.2264 97.6199 85.9061 97.0516 85.3371C96.4833 84.768 96.1641 83.9966 96.1641 83.1923C96.1641 82.3881 96.4833 81.6167 97.0516 81.0476C97.6199 80.4786 98.3909 80.1583 99.1951 80.1572H180.385C180.784 80.1567 181.179 80.2348 181.548 80.3871C181.916 80.5394 182.251 80.7629 182.534 81.0448C182.816 81.3266 183.04 81.6614 183.193 82.0299C183.345 82.3984 183.424 82.7934 183.424 83.1923C183.424 83.5913 183.345 83.9863 183.193 84.3548C183.04 84.7233 182.816 85.0581 182.534 85.3399C182.251 85.6218 181.916 85.8453 181.548 85.9976C181.179 86.1499 180.784 86.228 180.385 86.2275V86.2275Z" fill="#E6E6E6"/>
<path d="M78.9364 89.4529C85.2224 89.4529 90.3181 84.3571 90.3181 78.0712C90.3181 71.7852 85.2224 66.6895 78.9364 66.6895C72.6505 66.6895 67.5547 71.7852 67.5547 78.0712C67.5547 84.3571 72.6505 89.4529 78.9364 89.4529Z" fill="#E6E6E6"/>
<path d="M180.381 98.5585H169.758C169.359 98.5591 168.964 98.481 168.595 98.3287C168.227 98.1764 167.891 97.9529 167.609 97.671C167.327 97.3891 167.103 97.0543 166.95 96.6858C166.797 96.3173 166.719 95.9223 166.719 95.5234C166.719 95.1245 166.797 94.7295 166.95 94.361C167.103 93.9925 167.327 93.6577 167.609 93.3758C167.891 93.0939 168.227 92.8704 168.595 92.7181C168.964 92.5659 169.359 92.4877 169.758 92.4883H180.381C181.185 92.4894 181.956 92.8096 182.524 93.3787C183.093 93.9478 183.412 94.7191 183.412 95.5234C183.412 96.3277 183.093 97.099 182.524 97.6681C181.956 98.2372 181.185 98.5574 180.381 98.5585V98.5585Z" fill="white"/>
<path d="M180.381 98.5585H169.758C169.359 98.5591 168.964 98.481 168.595 98.3287C168.227 98.1764 167.891 97.9529 167.609 97.671C167.327 97.3891 167.103 97.0543 166.95 96.6858C166.797 96.3173 166.719 95.9223 166.719 95.5234C166.719 95.1245 166.797 94.7295 166.95 94.361C167.103 93.9925 167.327 93.6577 167.609 93.3758C167.891 93.0939 168.227 92.8704 168.595 92.7181C168.964 92.5659 169.359 92.4877 169.758 92.4883H180.381C181.185 92.4894 181.956 92.8096 182.524 93.3787C183.093 93.9478 183.412 94.7191 183.412 95.5234C183.412 96.3277 183.093 97.099 182.524 97.6681C181.956 98.2372 181.185 98.5574 180.381 98.5585V98.5585Z" fill="#CCCCCC"/>
<path d="M185.811 282.756H65.1645C63.4545 282.754 61.8152 282.074 60.606 280.865C59.3969 279.656 58.7168 278.017 58.7148 276.307V237.609C58.7168 235.899 59.3969 234.259 60.606 233.05C61.8152 231.841 63.4545 231.161 65.1645 231.159H185.811C187.521 231.161 189.16 231.841 190.369 233.05C191.578 234.259 192.258 235.899 192.26 237.609V276.307C192.258 278.017 191.578 279.656 190.369 280.865C189.16 282.074 187.521 282.754 185.811 282.756V282.756ZM65.1645 231.918C63.6557 231.92 62.2092 232.52 61.1424 233.587C60.0755 234.654 59.4753 236.1 59.4736 237.609V276.307C59.4753 277.815 60.0755 279.262 61.1424 280.329C62.2092 281.396 63.6557 281.996 65.1645 281.997H185.811C187.32 281.996 188.766 281.396 189.833 280.329C190.9 279.262 191.5 277.815 191.502 276.307V237.609C191.5 236.1 190.9 234.654 189.833 233.587C188.766 232.52 187.32 231.92 185.811 231.918H65.1645Z" fill="#CCCCCC"/>
<path d="M141.308 254.872H99.1953C98.3903 254.872 97.6183 254.552 97.0491 253.983C96.4799 253.414 96.1602 252.642 96.1602 251.837C96.1602 251.032 96.4799 250.26 97.0491 249.691C97.6183 249.122 98.3903 248.802 99.1953 248.802H141.308C142.112 248.803 142.883 249.123 143.451 249.692C144.02 250.261 144.339 251.033 144.339 251.837C144.339 252.641 144.02 253.412 143.451 253.982C142.883 254.551 142.112 254.871 141.308 254.872V254.872Z" fill="#E6E6E6"/>
<path d="M180.385 265.115H99.1951C98.3909 265.114 97.6199 264.794 97.0516 264.225C96.4833 263.656 96.1641 262.884 96.1641 262.08C96.1641 261.276 96.4833 260.504 97.0516 259.935C97.6199 259.366 98.3909 259.046 99.1951 259.045H180.385C181.19 259.045 181.962 259.365 182.531 259.934C183.1 260.503 183.42 261.275 183.42 262.08C183.42 262.885 183.1 263.657 182.531 264.226C181.962 264.795 181.19 265.115 180.385 265.115Z" fill="#E6E6E6"/>
<path d="M78.9364 268.34C85.2224 268.34 90.3181 263.244 90.3181 256.958C90.3181 250.672 85.2224 245.576 78.9364 245.576C72.6505 245.576 67.5547 250.672 67.5547 256.958C67.5547 263.244 72.6505 268.34 78.9364 268.34Z" fill="#E6E6E6"/>
<path d="M180.381 277.445H169.758C168.953 277.445 168.181 277.125 167.612 276.556C167.042 275.987 166.723 275.215 166.723 274.41C166.723 273.605 167.042 272.833 167.612 272.264C168.181 271.695 168.953 271.375 169.758 271.375H180.381C181.185 271.376 181.956 271.696 182.524 272.265C183.093 272.835 183.412 273.606 183.412 274.41C183.412 275.214 183.093 275.986 182.524 276.555C181.956 277.124 181.185 277.444 180.381 277.445V277.445Z" fill="white"/>
<path d="M180.381 277.445H169.758C168.953 277.445 168.181 277.125 167.612 276.556C167.042 275.987 166.723 275.215 166.723 274.41C166.723 273.605 167.042 272.833 167.612 272.264C168.181 271.695 168.953 271.375 169.758 271.375H180.381C181.185 271.376 181.956 271.696 182.524 272.265C183.093 272.835 183.412 273.606 183.412 274.41C183.412 275.214 183.093 275.986 182.524 276.555C181.956 277.124 181.185 277.444 180.381 277.445V277.445Z" fill="#CCCCCC"/>
<path d="M185.811 354.641H65.1645C63.4545 354.639 61.8152 353.959 60.606 352.75C59.3969 351.541 58.7168 349.901 58.7148 348.191V309.494C58.7168 307.784 59.3969 306.144 60.606 304.935C61.8152 303.726 63.4545 303.046 65.1645 303.044H185.811C187.521 303.046 189.16 303.726 190.369 304.935C191.578 306.144 192.258 307.784 192.26 309.494V348.191C192.258 349.901 191.578 351.541 190.369 352.75C189.16 353.959 187.521 354.639 185.811 354.641V354.641ZM65.1645 303.803C63.6557 303.804 62.2092 304.405 61.1424 305.471C60.0755 306.538 59.4753 307.985 59.4736 309.494V348.191C59.4753 349.7 60.0755 351.147 61.1424 352.214C62.2092 353.28 63.6557 353.881 65.1645 353.882H185.811C187.32 353.881 188.766 353.28 189.833 352.214C190.9 351.147 191.5 349.7 191.502 348.191V309.494C191.5 307.985 190.9 306.538 189.833 305.471C188.766 304.405 187.32 303.804 185.811 303.803H65.1645Z" fill="#CCCCCC"/>
<path d="M141.308 326.756H99.1953C98.3903 326.756 97.6183 326.436 97.0491 325.867C96.4799 325.298 96.1602 324.526 96.1602 323.721C96.1602 322.916 96.4799 322.144 97.0491 321.575C97.6183 321.005 98.3903 320.686 99.1953 320.686H141.308C142.112 320.687 142.883 321.007 143.451 321.576C144.02 322.145 144.339 322.916 144.339 323.721C144.339 324.525 144.02 325.296 143.451 325.865C142.883 326.434 142.112 326.755 141.308 326.756V326.756Z" fill="#E6E6E6"/>
<path d="M180.385 336.999H99.1951C98.3909 336.998 97.6199 336.678 97.0516 336.109C96.4833 335.539 96.1641 334.768 96.1641 333.964C96.1641 333.16 96.4833 332.388 97.0516 331.819C97.6199 331.25 98.3909 330.93 99.1951 330.929H180.385C181.19 330.929 181.962 331.248 182.531 331.818C183.1 332.387 183.42 333.159 183.42 333.964C183.42 334.769 183.1 335.541 182.531 336.11C181.962 336.679 181.19 336.999 180.385 336.999Z" fill="#E6E6E6"/>
<path d="M78.9364 340.224C85.2224 340.224 90.3181 335.129 90.3181 328.843C90.3181 322.557 85.2224 317.461 78.9364 317.461C72.6505 317.461 67.5547 322.557 67.5547 328.843C67.5547 335.129 72.6505 340.224 78.9364 340.224Z" fill="#E6E6E6"/>
<path d="M180.381 349.33H169.758C168.953 349.33 168.181 349.01 167.612 348.441C167.042 347.872 166.723 347.1 166.723 346.295C166.723 345.49 167.042 344.718 167.612 344.149C168.181 343.58 168.953 343.26 169.758 343.26H180.381C181.185 343.261 181.956 343.581 182.524 344.15C183.093 344.719 183.412 345.491 183.412 346.295C183.412 347.099 183.093 347.871 182.524 348.44C181.956 349.009 181.185 349.329 180.381 349.33V349.33Z" fill="white"/>
<path d="M180.381 349.33H169.758C168.953 349.33 168.181 349.01 167.612 348.441C167.042 347.872 166.723 347.1 166.723 346.295C166.723 345.49 167.042 344.718 167.612 344.149C168.181 343.58 168.953 343.26 169.758 343.26H180.381C181.185 343.261 181.956 343.581 182.524 344.15C183.093 344.719 183.412 345.491 183.412 346.295C183.412 347.099 183.093 347.871 182.524 348.44C181.956 349.009 181.185 349.329 180.381 349.33V349.33Z" fill="#CCCCCC"/>
<path d="M110.655 420.223H117.383L120.583 394.274L110.654 394.275L110.655 420.223Z" fill="#FFB8B8"/>
<path d="M108.939 418.026L122.188 418.025H122.189C123.297 418.025 124.395 418.244 125.42 418.668C126.444 419.092 127.375 419.714 128.159 420.498C128.943 421.282 129.565 422.213 129.989 423.237C130.413 424.262 130.632 425.36 130.632 426.468V426.743L108.94 426.743L108.939 418.026Z" fill="#2F2E41"/>
<path d="M83.7687 420.223H90.4962L93.6964 394.274L83.7676 394.275L83.7687 420.223Z" fill="#FFB8B8"/>
<path d="M82.0527 418.026L95.3013 418.025H95.3018C96.4106 418.025 97.5085 418.244 98.5329 418.668C99.5572 419.092 100.488 419.714 101.272 420.498C102.056 421.282 102.678 422.213 103.102 423.237C103.527 424.262 103.745 425.36 103.745 426.468V426.743L82.0532 426.743L82.0527 418.026Z" fill="#2F2E41"/>
<path d="M111.999 240.578C119.442 240.578 125.476 234.544 125.476 227.101C125.476 219.657 119.442 213.623 111.999 213.623C104.556 213.623 98.5215 219.657 98.5215 227.101C98.5215 234.544 104.556 240.578 111.999 240.578Z" fill="#FFB8B8"/>
<path d="M121.062 414.622H108.578C108.251 414.622 107.928 414.557 107.626 414.431C107.325 414.305 107.051 414.12 106.822 413.888C106.592 413.656 106.411 413.38 106.289 413.077C106.166 412.774 106.105 412.449 106.109 412.123L106.835 352.842C106.837 352.632 106.759 352.428 106.616 352.273C106.473 352.119 106.277 352.025 106.067 352.011C105.856 351.996 105.649 352.063 105.487 352.198C105.325 352.332 105.22 352.523 105.194 352.732L97.9289 412.451C97.8555 413.05 97.5658 413.601 97.1143 414.001C96.6628 414.401 96.0807 414.621 95.4777 414.622H82.8736C82.5331 414.622 82.1963 414.552 81.8843 414.415C81.5724 414.279 81.2919 414.079 81.0607 413.829C80.8295 413.579 80.6525 413.284 80.5409 412.963C80.4292 412.641 80.3853 412.3 80.4118 411.96L88.7347 305.465L88.961 305.44L128.815 301.136L123.529 412.27C123.5 412.904 123.227 413.502 122.767 413.941C122.308 414.379 121.697 414.623 121.062 414.622V414.622Z" fill="#2F2E41"/>
<path d="M89.2194 312.002C88.5791 312.001 87.9645 311.751 87.5054 311.304C87.0462 310.858 86.7786 310.251 86.7589 309.611C86.5414 302.877 86.1686 279.577 90.5024 262.472C91.6852 257.799 94.3401 253.63 98.0747 250.583C101.809 247.536 106.425 245.771 111.241 245.549V245.549C115.98 245.29 120.681 246.531 124.675 249.094C128.67 251.657 131.757 255.413 133.496 259.829C140.781 278.323 147.664 301.119 139.083 304.695C127.837 309.38 98.1895 311.469 89.3709 311.998C89.3202 312.001 89.2697 312.002 89.2194 312.002Z" fill="#368F5C"/>
<path d="M140.729 213.478C140.941 213.696 141.169 213.897 141.413 214.078L139.998 241.255L134.113 244.268L137.499 253.743L148.436 249.422C149.319 249.073 150.065 248.447 150.563 247.637C151.06 246.828 151.281 245.879 151.193 244.933L148.328 214.105C149.266 213.406 149.968 212.438 150.342 211.329C150.716 210.221 150.743 209.025 150.421 207.9C150.098 206.776 149.441 205.777 148.536 205.035C147.632 204.293 146.523 203.844 145.357 203.748C144.192 203.652 143.024 203.913 142.011 204.496C140.997 205.08 140.185 205.958 139.682 207.014C139.18 208.071 139.011 209.255 139.198 210.41C139.385 211.564 139.919 212.635 140.729 213.478H140.729Z" fill="#FFB8B8"/>
<path d="M140.111 242.266L144.25 254.03C144.368 254.365 144.412 254.721 144.38 255.074C144.348 255.428 144.24 255.77 144.063 256.078C143.887 256.386 143.646 256.652 143.357 256.858C143.069 257.065 142.739 257.206 142.391 257.274L130.184 259.638C128.468 260.231 126.587 260.119 124.953 259.327C123.319 258.536 122.066 257.128 121.468 255.414C120.87 253.699 120.977 251.818 121.765 250.182C122.552 248.546 123.956 247.289 125.669 246.687L136.629 240.901C136.943 240.736 137.289 240.64 137.643 240.62C137.998 240.6 138.352 240.657 138.682 240.786C139.013 240.916 139.311 241.115 139.558 241.37C139.804 241.626 139.993 241.931 140.111 242.266V242.266Z" fill="#368F5C"/>
<path d="M82.3522 213.478C82.1405 213.696 81.9118 213.897 81.6685 214.078L83.0833 241.255L88.9681 244.268L85.5819 253.743L74.6458 249.422C73.7623 249.073 73.0159 248.447 72.5186 247.637C72.0214 246.828 71.8001 245.879 71.888 244.933L74.753 214.105C73.8155 213.406 73.1132 212.438 72.7394 211.329C72.3656 210.221 72.3382 209.025 72.6607 207.9C72.9832 206.776 73.6404 205.777 74.5448 205.035C75.4493 204.293 76.5581 203.844 77.7239 203.748C78.8896 203.652 80.057 203.913 81.0708 204.496C82.0846 205.08 82.8968 205.958 83.3992 207.014C83.9016 208.071 84.0706 209.255 83.8836 210.41C83.6965 211.564 83.1624 212.635 82.3522 213.478V213.478Z" fill="#FFB8B8"/>
<path d="M84.3995 240.787C84.7298 240.657 85.0843 240.6 85.4386 240.62C85.7928 240.64 86.1387 240.736 86.4525 240.902L97.4127 246.687C99.1256 247.289 100.53 248.546 101.317 250.182C102.105 251.818 102.211 253.7 101.614 255.414C101.016 257.128 99.7629 258.536 98.129 259.328C96.4952 260.12 94.614 260.231 92.8979 259.638L80.6911 257.274C80.3427 257.207 80.013 257.065 79.7244 256.859C79.4357 256.652 79.195 256.386 79.0185 256.078C78.842 255.77 78.7339 255.428 78.7016 255.075C78.6694 254.721 78.7136 254.365 78.8314 254.03L82.9712 242.266C83.0888 241.931 83.2773 241.626 83.5238 241.37C83.7703 241.115 84.069 240.916 84.3995 240.787Z" fill="#368F5C"/>
<path d="M117.233 229.397C117.162 227.678 117.593 225.976 118.474 224.498C119.355 223.02 120.648 221.83 122.194 221.074C126.29 218.96 128.864 214.448 127.736 210.329C126.293 205.056 119.117 201.637 113.302 203.451C111.728 204.01 110.21 204.715 108.769 205.558L104.97 207.594C103.347 208.406 101.782 209.33 100.287 210.358C98.0471 212.009 96.2916 214.231 95.2037 216.792C94.1158 219.352 93.7356 222.158 94.1026 224.916C94.8507 230.277 98.3611 235.193 103.166 238.558C105.004 239.932 107.127 240.875 109.377 241.319C111.681 241.699 114.245 241.267 115.929 239.835C118.561 237.596 118.289 233.848 117.438 230.717C117.325 230.285 117.257 229.843 117.233 229.397V229.397Z" fill="#2F2E41"/>
</g>
<defs>
<clipPath id="clip0">
<rect width="240" height="426.744" fill="white"/>
</clipPath>
</defs>
</svg>
